<?xml version="1.0" encoding="iso-8859-1"?>
<!-- Generator: Adobe Illustrator 18.1.1, SVG Export Plug-In . SVG Version: 6.00 Build 0)  -->
<svg version="1.1" id="Layer_1" xmlns="http://www.w3.org/2000/svg" xmlns:xlink="http://www.w3.org/1999/xlink" x="0px" y="0px"
	 viewBox="0 0 792 612" style="enable-background:new 0 0 792 612;" xml:space="preserve">
<path style="fill:#FF9C00;" d="M0,266.658v67.748c0,0,44.01,37.638,0,48.929v51.438l40.343,6.273c0,0,66.015-74.021,117.361,0h184.6
	V137.433h-70.906c0,0-13.448-71.512-37.898,0c0,0-119.806-8.782-147.923,120.443L0,266.658z"/>
<path style="fill:#EE2C24;" d="M276.635,137.65c0,0-17.164-91.277-48.373,0H276.635z"/>
<path style="fill:#DBFCFA;" d="M124.105,251.631l56.558-63.319c3.615-4.048,8.785-6.361,14.21-6.361h99.506
	c7.177,0,12.996,5.818,12.996,12.996v78.518c0,5.613-4.498,10.188-10.108,10.285l-157.861,2.762
	C121.594,286.823,112.068,265.107,124.105,251.631z"/>
<rect x="171.152" y="374.553" style="fill:#A2FFFD;" width="171.152" height="21.328"/>
<path style="fill:#FF9C00;" d="M374.091,94.776v279.781v66.489h161.575c0,0,55.884-76.53,112.982,0H792V94.776H374.091z"/>
<rect x="374.091" y="374.553" style="fill:#A2FFFD;" width="375.312" height="21.328"/>
<ellipse style="fill:#6D6E71;" cx="101.731" cy="468.394" rx="47.416" ry="46.498"/>
<ellipse style="fill:#6D6E71;" cx="593.571" cy="469.665" rx="47.416" ry="46.498"/>
<polygon style="fill:#FFFFFF;" points="556.073,203.798 485.544,203.798 485.97,273.236 556.577,273.655 556.073,340.731 
	635.761,340.731 635.761,272.263 704.529,272.263 705.788,203.798 635.761,203.798 636.317,131.527 556.073,131.527 "/>
</svg>
