<?xml version="1.0" encoding="iso-8859-1"?>
<!-- Generator: Adobe Illustrator 18.1.1, SVG Export Plug-In . SVG Version: 6.00 Build 0)  -->
<svg version="1.1" id="Layer_1" xmlns="http://www.w3.org/2000/svg" xmlns:xlink="http://www.w3.org/1999/xlink" x="0px" y="0px"
	 viewBox="0 0 141.936 227.972" style="enable-background:new 0 0 141.936 227.972;" xml:space="preserve">
<path style="fill:#F7D2A0;" d="M141.317,196.714c-4.032,27.691-30.595,31.211-30.595,31.211L0.214,116.822
	c5.265-26.451,30.999-30.834,30.999-30.834L141.317,196.714"/>
<g>
	<g>
		<path d="M131.719,199.737c2.251,0,2.254-3.498,0-3.498C129.468,196.239,129.465,199.737,131.719,199.737L131.719,199.737z"/>
	</g>
</g>
<g>
	<g>
		<path d="M121.814,209.395c2.251,0,2.254-3.498,0-3.498C119.563,205.897,119.56,209.395,121.814,209.395L121.814,209.395z"/>
	</g>
</g>
<g>
	<g>
		<path d="M110.882,198.407c2.251,0,2.254-3.498,0-3.498C108.631,194.91,108.627,198.407,110.882,198.407L110.882,198.407z"/>
	</g>
</g>
<g>
	<g>
		<path d="M120.691,188.653c2.251,0,2.254-3.498,0-3.498C118.44,185.156,118.436,188.653,120.691,188.653L120.691,188.653z"/>
	</g>
</g>
<g>
	<g>
		<path d="M109.31,177.407c2.251,0,2.254-3.498,0-3.498C107.059,173.909,107.055,177.407,109.31,177.407L109.31,177.407z"/>
	</g>
</g>
<g>
	<g>
		<path d="M99.404,187.066c2.251,0,2.254-3.498,0-3.498C97.153,183.569,97.149,187.066,99.404,187.066L99.404,187.066z"/>
	</g>
</g>
<g>
	<g>
		<path d="M111.639,219.498c2.251,0,2.254-3.498,0-3.498C109.388,216,109.385,219.498,111.639,219.498L111.639,219.498z"/>
	</g>
</g>
<g>
	<g>
		<path d="M100.721,208.511c2.251,0,2.254-3.498,0-3.498C98.47,205.013,98.466,208.511,100.721,208.511L100.721,208.511z"/>
	</g>
</g>
<g>
	<g>
		<path d="M89.335,197.269c2.251,0,2.254-3.498,0-3.498C87.085,193.771,87.081,197.269,89.335,197.269L89.335,197.269z"/>
	</g>
</g>
<g>
	<g>
		<path d="M52.612,120.217c2.251,0,2.254-3.498,0-3.498C50.362,116.719,50.358,120.217,52.612,120.217L52.612,120.217z"/>
	</g>
</g>
<g>
	<g>
		<path d="M42.707,129.875c2.251,0,2.254-3.498,0-3.498C40.457,126.377,40.453,129.875,42.707,129.875L42.707,129.875z"/>
	</g>
</g>
<g>
	<g>
		<path d="M31.775,118.887c2.251,0,2.254-3.498,0-3.498C29.524,115.389,29.52,118.887,31.775,118.887L31.775,118.887z"/>
	</g>
</g>
<g>
	<g>
		<path d="M41.584,109.133c2.251,0,2.254-3.498,0-3.498C39.333,105.635,39.33,109.133,41.584,109.133L41.584,109.133z"/>
	</g>
</g>
<g>
	<g>
		<path d="M30.203,97.886c2.251,0,2.254-3.498,0-3.498C27.952,94.388,27.948,97.886,30.203,97.886L30.203,97.886z"/>
	</g>
</g>
<g>
	<g>
		<path d="M20.297,107.546c2.251,0,2.254-3.498,0-3.498C18.046,104.048,18.043,107.546,20.297,107.546L20.297,107.546z"/>
	</g>
</g>
<g>
	<g>
		<path d="M32.532,139.978c2.251,0,2.254-3.498,0-3.498C30.282,136.48,30.278,139.978,32.532,139.978L32.532,139.978z"/>
	</g>
</g>
<g>
	<g>
		<path d="M21.614,128.991c2.251,0,2.254-3.498,0-3.498C19.363,125.493,19.36,128.991,21.614,128.991L21.614,128.991z"/>
	</g>
</g>
<g>
	<g>
		<path d="M10.229,117.748c2.251,0,2.254-3.498,0-3.498C7.978,114.251,7.974,117.748,10.229,117.748L10.229,117.748z"/>
	</g>
</g>
<path style="fill:#F7D2A0;" d="M110.725,86.869c27.691,4.032,31.211,30.595,31.211,30.595L30.834,227.972
	C4.383,222.707,0,196.972,0,196.972L110.725,86.869"/>
<g>
	<g>
		<path d="M111.999,98.216c2.251,0,2.254-3.498,0-3.498C109.749,94.718,109.745,98.216,111.999,98.216L111.999,98.216z"/>
	</g>
</g>
<g>
	<g>
		<path d="M121.658,108.121c2.251,0,2.254-3.498,0-3.498C119.407,104.623,119.403,108.121,121.658,108.121L121.658,108.121z"/>
	</g>
</g>
<g>
	<g>
		<path d="M110.67,119.053c2.251,0,2.254-3.498,0-3.498C108.419,115.555,108.415,119.053,110.67,119.053L110.67,119.053z"/>
	</g>
</g>
<g>
	<g>
		<path d="M100.916,109.244c2.251,0,2.254-3.498,0-3.498C98.665,105.746,98.661,109.244,100.916,109.244L100.916,109.244z"/>
	</g>
</g>
<g>
	<g>
		<path d="M89.669,120.625c2.251,0,2.254-3.498,0-3.498C87.418,117.127,87.415,120.625,89.669,120.625L89.669,120.625z"/>
	</g>
</g>
<g>
	<g>
		<path d="M99.329,130.531c2.251,0,2.254-3.498,0-3.498C97.078,127.033,97.074,130.531,99.329,130.531L99.329,130.531z"/>
	</g>
</g>
<g>
	<g>
		<path d="M131.761,118.296c2.251,0,2.254-3.498,0-3.498C129.51,114.798,129.506,118.296,131.761,118.296L131.761,118.296z"/>
	</g>
</g>
<g>
	<g>
		<path d="M120.774,129.214c2.251,0,2.254-3.498,0-3.498C118.523,125.716,118.519,129.214,120.774,129.214L120.774,129.214z"/>
	</g>
</g>
<g>
	<g>
		<path d="M109.531,140.6c2.251,0,2.254-3.498,0-3.498C107.281,137.102,107.277,140.6,109.531,140.6L109.531,140.6z"/>
	</g>
</g>
<g>
	<g>
		<path d="M32.479,177.323c2.251,0,2.254-3.498,0-3.498C30.228,173.825,30.225,177.323,32.479,177.323L32.479,177.323z"/>
	</g>
</g>
<g>
	<g>
		<path d="M42.137,187.227c2.251,0,2.254-3.498,0-3.498C39.886,183.73,39.883,187.227,42.137,187.227L42.137,187.227z"/>
	</g>
</g>
<g>
	<g>
		<path d="M31.149,198.16c2.251,0,2.254-3.498,0-3.498C28.899,194.662,28.895,198.16,31.149,198.16L31.149,198.16z"/>
	</g>
</g>
<g>
	<g>
		<path d="M21.395,188.351c2.251,0,2.254-3.498,0-3.498C19.145,184.853,19.141,188.351,21.395,188.351L21.395,188.351z"/>
	</g>
</g>
<g>
	<g>
		<path d="M10.149,199.732c2.251,0,2.254-3.498,0-3.498C7.898,196.234,7.894,199.732,10.149,199.732L10.149,199.732z"/>
	</g>
</g>
<g>
	<g>
		<path d="M19.808,209.638c2.251,0,2.254-3.498,0-3.498C17.558,206.14,17.554,209.638,19.808,209.638L19.808,209.638z"/>
	</g>
</g>
<g>
	<g>
		<path d="M52.24,197.403c2.251,0,2.254-3.498,0-3.498C49.99,193.905,49.986,197.403,52.24,197.403L52.24,197.403z"/>
	</g>
</g>
<g>
	<g>
		<path d="M41.253,208.321c2.251,0,2.254-3.498,0-3.498C39.003,204.823,38.999,208.321,41.253,208.321L41.253,208.321z"/>
	</g>
</g>
<g>
	<g>
		<path d="M30.011,219.706c2.251,0,2.254-3.498,0-3.498C27.76,216.208,27.756,219.706,30.011,219.706L30.011,219.706z"/>
	</g>
</g>
<rect x="50.535" y="140.207" transform="matrix(0.7091 -0.7051 0.7051 0.7091 -90.0273 95.7)" style="fill:none;stroke:#000000;stroke-width:0.6996;stroke-linejoin:round;stroke-miterlimit:10;" width="40.866" height="33.5"/>
<g>
	<path style="fill:#6D6E71;" d="M26.991,8.061v13.153h11.953v2.16H26.991v18.722h-2.304V5.9H39.28v2.16H26.991z"/>
	<path style="fill:#6D6E71;" d="M65.297,42.096h-2.16v-3.984H63.04c-1.632,2.832-5.185,4.464-8.448,4.464
		c-6.721,0-10.945-5.232-10.945-11.713s4.177-11.425,10.85-11.425c3.408,0,6.672,1.536,8.544,4.321h0.097v-3.84h2.16V42.096z
		 M45.807,30.863c0,5.088,3.36,9.697,8.737,9.697c5.664,0,8.736-4.608,8.736-9.937c0-5.136-3.504-9.168-8.881-9.168
		C49.311,21.454,45.807,26.062,45.807,30.863z"/>
	<path style="fill:#6D6E71;" d="M89.68,25.054c-2.112-2.304-4.656-3.6-7.824-3.6c-5.232,0-9.169,4.464-9.169,9.505
		c0,5.04,3.889,9.601,9.121,9.601c3.168,0,6.145-1.536,8.16-3.984v2.928c-2.256,1.968-5.088,3.072-8.064,3.072
		c-6.576,0-11.377-5.136-11.377-11.617c0-6.433,4.896-11.521,11.425-11.521c2.881,0,5.521,0.864,7.729,2.736V25.054z"/>
	<path style="fill:#6D6E71;" d="M97.982,42.096h-2.16V21.934h-2.448v-2.016h2.448v-7.921h2.16v7.921h3.889v2.016h-3.889V42.096z"/>
	<path style="fill:#6D6E71;" d="M114.927,23.95c-0.72-1.536-2.16-2.496-3.888-2.496c-1.872,0-3.793,1.536-3.793,3.456
		c0,5.329,10.801,2.736,10.801,10.753c0,4.081-3.168,6.913-7.152,6.913c-3.696,0-6.721-2.256-7.633-5.856l2.112-0.672
		c0.816,2.64,2.593,4.512,5.521,4.512c2.784,0,4.992-2.208,4.992-4.992c0-2.736-2.111-3.601-4.32-4.369
		c-3.023-1.104-6.48-2.4-6.48-6.145c0-3.36,2.833-5.617,6.049-5.617c2.256,0,4.704,1.488,5.664,3.553L114.927,23.95z"/>
</g>
</svg>
