<?xml version="1.0" encoding="iso-8859-1"?>
<!-- Generator: Adobe Illustrator 18.1.1, SVG Export Plug-In . SVG Version: 6.00 Build 0)  -->
<svg version="1.1" id="Layer_1" xmlns="http://www.w3.org/2000/svg" xmlns:xlink="http://www.w3.org/1999/xlink" x="0px" y="0px"
	 viewBox="0 0 170.445 170.445" style="enable-background:new 0 0 170.445 170.445;" xml:space="preserve">
<path style="fill:#F7D2A0;" d="M155.441,124.849c-4.032,27.691-30.595,31.211-30.595,31.211L14.338,44.957
	c5.265-26.451,30.999-30.834,30.999-30.834L155.441,124.849"/>
<g>
	<g>
		<path d="M145.843,127.872c2.251,0,2.254-3.498,0-3.498C143.592,124.374,143.588,127.872,145.843,127.872L145.843,127.872z"/>
	</g>
</g>
<g>
	<g>
		<path d="M135.938,137.53c2.251,0,2.254-3.498,0-3.498C133.687,134.032,133.683,137.53,135.938,137.53L135.938,137.53z"/>
	</g>
</g>
<g>
	<g>
		<path d="M125.005,126.542c2.251,0,2.254-3.498,0-3.498C122.755,123.045,122.751,126.542,125.005,126.542L125.005,126.542z"/>
	</g>
</g>
<g>
	<g>
		<path d="M134.814,116.788c2.251,0,2.254-3.498,0-3.498C132.564,113.29,132.56,116.788,134.814,116.788L134.814,116.788z"/>
	</g>
</g>
<g>
	<g>
		<path d="M123.433,105.542c2.251,0,2.254-3.498,0-3.498C121.183,102.044,121.179,105.542,123.433,105.542L123.433,105.542z"/>
	</g>
</g>
<g>
	<g>
		<path d="M113.527,115.201c2.251,0,2.254-3.498,0-3.498C111.277,111.704,111.273,115.201,113.527,115.201L113.527,115.201z"/>
	</g>
</g>
<g>
	<g>
		<path d="M125.763,147.633c2.251,0,2.254-3.498,0-3.498C123.512,144.135,123.508,147.633,125.763,147.633L125.763,147.633z"/>
	</g>
</g>
<g>
	<g>
		<path d="M114.844,136.646c2.251,0,2.254-3.498,0-3.498C112.594,133.148,112.59,136.646,114.844,136.646L114.844,136.646z"/>
	</g>
</g>
<g>
	<g>
		<path d="M103.459,125.404c2.251,0,2.254-3.498,0-3.498C101.208,121.906,101.204,125.404,103.459,125.404L103.459,125.404z"/>
	</g>
</g>
<g>
	<g>
		<path d="M66.736,48.351c2.251,0,2.254-3.498,0-3.498C64.485,44.854,64.482,48.351,66.736,48.351L66.736,48.351z"/>
	</g>
</g>
<g>
	<g>
		<path d="M56.831,58.01c2.251,0,2.254-3.498,0-3.498C54.58,54.512,54.577,58.01,56.831,58.01L56.831,58.01z"/>
	</g>
</g>
<g>
	<g>
		<path d="M45.899,47.022c2.251,0,2.254-3.498,0-3.498C43.648,43.524,43.644,47.022,45.899,47.022L45.899,47.022z"/>
	</g>
</g>
<g>
	<g>
		<path d="M55.708,37.268c2.251,0,2.254-3.498,0-3.498C53.457,33.77,53.453,37.268,55.708,37.268L55.708,37.268z"/>
	</g>
</g>
<g>
	<g>
		<path d="M44.327,26.021c2.251,0,2.254-3.498,0-3.498C42.076,22.523,42.072,26.021,44.327,26.021L44.327,26.021z"/>
	</g>
</g>
<g>
	<g>
		<path d="M34.421,35.681c2.251,0,2.254-3.498,0-3.498C32.17,32.183,32.166,35.681,34.421,35.681L34.421,35.681z"/>
	</g>
</g>
<g>
	<g>
		<path d="M46.656,68.113c2.251,0,2.254-3.498,0-3.498C44.405,64.615,44.402,68.113,46.656,68.113L46.656,68.113z"/>
	</g>
</g>
<g>
	<g>
		<path d="M35.738,57.126c2.251,0,2.254-3.498,0-3.498C33.487,53.628,33.483,57.126,35.738,57.126L35.738,57.126z"/>
	</g>
</g>
<g>
	<g>
		<path d="M24.352,45.883c2.251,0,2.254-3.498,0-3.498C22.101,42.386,22.098,45.883,24.352,45.883L24.352,45.883z"/>
	</g>
</g>
<path style="fill:#F7D2A0;" d="M124.849,15.004c27.691,4.032,31.211,30.595,31.211,30.595L44.957,156.107
	c-26.451-5.265-30.834-30.999-30.834-30.999L124.849,15.004"/>
<g>
	<g>
		<path d="M126.123,26.351c2.251,0,2.254-3.498,0-3.498C123.872,22.853,123.869,26.351,126.123,26.351L126.123,26.351z"/>
	</g>
</g>
<g>
	<g>
		<path d="M135.781,36.256c2.251,0,2.254-3.498,0-3.498C133.531,32.758,133.527,36.256,135.781,36.256L135.781,36.256z"/>
	</g>
</g>
<g>
	<g>
		<path d="M124.793,47.188c2.251,0,2.254-3.498,0-3.498C122.543,43.69,122.539,47.188,124.793,47.188L124.793,47.188z"/>
	</g>
</g>
<g>
	<g>
		<path d="M115.039,37.379c2.251,0,2.254-3.498,0-3.498C112.789,33.881,112.785,37.379,115.039,37.379L115.039,37.379z"/>
	</g>
</g>
<g>
	<g>
		<path d="M103.793,48.76c2.251,0,2.254-3.498,0-3.498C101.542,45.262,101.538,48.76,103.793,48.76L103.793,48.76z"/>
	</g>
</g>
<g>
	<g>
		<path d="M113.452,58.666c2.251,0,2.254-3.498,0-3.498C111.202,55.168,111.198,58.666,113.452,58.666L113.452,58.666z"/>
	</g>
</g>
<g>
	<g>
		<path d="M145.884,46.431c2.251,0,2.254-3.498,0-3.498C143.634,42.933,143.63,46.431,145.884,46.431L145.884,46.431z"/>
	</g>
</g>
<g>
	<g>
		<path d="M134.897,57.349c2.251,0,2.254-3.498,0-3.498C132.647,53.851,132.643,57.349,134.897,57.349L134.897,57.349z"/>
	</g>
</g>
<g>
	<g>
		<path d="M123.655,68.735c2.251,0,2.254-3.498,0-3.498C121.404,65.237,121.4,68.735,123.655,68.735L123.655,68.735z"/>
	</g>
</g>
<g>
	<g>
		<path d="M46.603,105.457c2.251,0,2.254-3.498,0-3.498C44.352,101.96,44.348,105.457,46.603,105.457L46.603,105.457z"/>
	</g>
</g>
<g>
	<g>
		<path d="M56.261,115.362c2.251,0,2.254-3.498,0-3.498C54.01,111.865,54.006,115.362,56.261,115.362L56.261,115.362z"/>
	</g>
</g>
<g>
	<g>
		<path d="M45.273,126.295c2.251,0,2.254-3.498,0-3.498C43.022,122.797,43.019,126.295,45.273,126.295L45.273,126.295z"/>
	</g>
</g>
<g>
	<g>
		<path d="M35.519,116.486c2.251,0,2.254-3.498,0-3.498C33.268,112.988,33.265,116.486,35.519,116.486L35.519,116.486z"/>
	</g>
</g>
<g>
	<g>
		<path d="M24.272,127.867c2.251,0,2.254-3.498,0-3.498C22.022,124.369,22.018,127.867,24.272,127.867L24.272,127.867z"/>
	</g>
</g>
<g>
	<g>
		<path d="M33.932,137.773c2.251,0,2.254-3.498,0-3.498C31.681,134.275,31.678,137.773,33.932,137.773L33.932,137.773z"/>
	</g>
</g>
<g>
	<g>
		<path d="M66.364,125.537c2.251,0,2.254-3.498,0-3.498C64.113,122.04,64.109,125.537,66.364,125.537L66.364,125.537z"/>
	</g>
</g>
<g>
	<g>
		<path d="M55.377,136.456c2.251,0,2.254-3.498,0-3.498C53.126,132.958,53.123,136.456,55.377,136.456L55.377,136.456z"/>
	</g>
</g>
<g>
	<g>
		<path d="M44.134,147.841c2.251,0,2.254-3.498,0-3.498C41.884,144.343,41.88,147.841,44.134,147.841L44.134,147.841z"/>
	</g>
</g>
<rect x="64.658" y="68.342" transform="matrix(0.7091 -0.7051 0.7051 0.7091 -35.2456 84.7528)" style="fill:none;stroke:#000000;stroke-width:0.6996;stroke-linejoin:round;stroke-miterlimit:10;" width="40.866" height="33.5"/>
</svg>
