<?xml version="1.0" encoding="iso-8859-1"?>
<!-- Generator: Adobe Illustrator 18.1.1, SVG Export Plug-In . SVG Version: 6.00 Build 0)  -->
<svg version="1.1" id="Layer_1" xmlns="http://www.w3.org/2000/svg" xmlns:xlink="http://www.w3.org/1999/xlink" x="0px" y="0px"
	 viewBox="0 0 262.265 130.176" style="enable-background:new 0 0 262.265 130.176;" xml:space="preserve">
<polygon style="stroke:#000000;stroke-width:0.937;stroke-miterlimit:10;" points="0.475,75.782 1.159,122.438 40.945,121.246 
	39.769,75.225 "/>
<path style="fill:#F7D2A0;stroke:#F7D2A0;stroke-width:0.937;stroke-miterlimit:10;" d="M47.038,75.093l0.838,46.085l90.285-0.012
	c0,0,43.6,14.168,76.527,6.011c4.609-1.142,2.879-9.598-1.802-10.372c-2.828-0.468-7.551-0.009-13.621,0.971
	c0,0,29.153-4.784,11.436-13.385c-1.151-0.559-12.568,0.946-11.329,0.643c16.295-3.986,56.362-17.562,62.421-55.606
	c0,0,0.909-15.253-26.43,12.403c-11.868,12.006-28.317,18.43-44.912,16.873c-10.964-1.029-19.466-5.11-14.616-16.458
	c2.123-4.967,8.098-10.553,12.97-12.655c18.109-7.812,48.308-31.148,0.736-18.581c-6.256,1.652-12.378,3.879-18.326,6.464
	c-6.836,2.971-17.834,6.721-24.883,3.898c-10.844-4.343-49.463,11.176-51.1,30.011C93.595,90.215,47.038,75.093,47.038,75.093z"/>
<path style="fill:#BB8B3A;stroke:#BB8B3A;stroke-width:0.937;stroke-miterlimit:10;" d="M261.142,19.355
	c1.87,12.198-6.25,23.641-18.136,25.56c-11.886,1.919-23.037-6.414-24.906-18.612s6.25-23.641,18.136-25.56
	C248.122-1.175,259.273,7.157,261.142,19.355z"/>
</svg>
