<?xml version="1.0" encoding="iso-8859-1"?>
<!-- Generator: Adobe Illustrator 18.1.1, SVG Export Plug-In . SVG Version: 6.00 Build 0)  -->
<svg version="1.1" id="Layer_1" xmlns="http://www.w3.org/2000/svg" xmlns:xlink="http://www.w3.org/1999/xlink" x="0px" y="0px"
	 viewBox="0 0 1619.862 359.001" style="enable-background:new 0 0 1619.862 359.001;" xml:space="preserve">
<g>
	<path style="fill:#666666;" d="M823.873,176.502"/>
	<path style="fill:#666666;" d="M930.384,181c-0.41,0.31-0.94,0.5-1.5,0.5h-233c-0.72,0-1.4-0.31-1.87-0.84l-16.71-18.9
		l-20.26,34.99c-0.53,0.93-1.6,1.41-2.65,1.2c-1.05-0.21-1.85-1.07-1.99-2.13l-21.55-166.33l-18.47,326.15
		c-0.08,1.31-1.15,2.34-2.46,2.36h-0.04c-1.3,0-2.38-0.99-2.49-2.29l-16.23-189l-17.03,34.89c-0.4,0.8-1.19,1.34-2.09,1.4
		c-0.89,0.05-1.75-0.38-2.25-1.13l-23.5-35.72l-18.87,14.82c-0.44,0.34-0.98,0.53-1.54,0.53h-115c-0.82,0-1.58-0.4-2.05-1.07
		l-12.85-18.42l-23.99,37.83c-0.56,0.89-1.63,1.33-2.65,1.1c-1.03-0.23-1.81-1.08-1.94-2.12l-21.56-169.05l-18.46,325.87
		c-0.08,1.32-1.16,2.35-2.48,2.36c-0.01,0-0.01,0-0.02,0c-1.31,0-2.4-1.01-2.49-2.32l-13.49-190.71l-15.94,23.92
		c-0.39,0.58-1,0.97-1.69,1.08c-0.68,0.11-1.39-0.07-1.93-0.5l-26.68-20.96l-19.54,11.16c-0.38,0.22-0.8,0.33-1.24,0.33H2.504
		c-1.38,0-2.5-1.12-2.5-2.5s1.12-2.5,2.5-2.5h238.72l20.42-11.67c0.88-0.51,1.98-0.42,2.78,0.2l25.88,20.33l18.5-27.75
		c0.59-0.89,1.68-1.3,2.72-1.03c1.03,0.28,1.78,1.18,1.85,2.24l11.23,158.84l17.78-313.8c0.08-1.29,1.12-2.31,2.41-2.36
		c1.28-0.04,2.41,0.9,2.57,2.18l24.12,189.12l22.29-35.14c0.45-0.71,1.22-1.14,2.05-1.16c0.83-0.03,1.63,0.38,2.11,1.07l14.25,20.43
		h112.84l20.32-15.97c0.55-0.43,1.25-0.61,1.94-0.5c0.69,0.11,1.3,0.51,1.69,1.1l22.59,34.33l19.07-39.06
		c0.5-1.01,1.61-1.57,2.71-1.36c1.1,0.21,1.93,1.13,2.03,2.25l14,163.03l18.01-317.96c0.08-1.29,1.12-2.31,2.41-2.36
		c1.29-0.03,2.4,0.9,2.57,2.18l24.05,185.68l18.31-31.61c0.4-0.7,1.11-1.16,1.91-1.24c0.81-0.08,1.59,0.23,2.12,0.83l18.26,20.66
		h230.87l0.81-0.5l20.43-11.67c0.88-0.5,1.98-0.42,2.78,0.21l25.88,20.33l18.5-27.76c0.59-0.88,1.68-1.3,2.72-1.03
		c1.03,0.28,1.78,1.18,1.85,2.24l11.23,158.84l17.78-313.8c0.08-1.29,1.12-2.31,2.41-2.36c1.31-0.04,2.4,0.9,2.57,2.18l24.12,189.13
		l22.29-35.15c0.45-0.7,1.22-1.14,2.05-1.16c0.79-0.02,1.63,0.38,2.11,1.07l14.25,20.43h112.83l20.32-15.96
		c0.55-0.44,1.26-0.62,1.95-0.51c0.69,0.12,1.3,0.51,1.69,1.1l22.59,34.33l19.07-39.06c0.5-1.01,1.6-1.56,2.71-1.36
		c1.1,0.21,1.93,1.13,2.03,2.25l14,163.03l18.01-317.96c0.08-1.29,1.12-2.31,2.41-2.36c1.3-0.04,2.4,0.9,2.57,2.18l24.05,185.69
		l18.31-31.62c0.4-0.7,1.11-1.16,1.91-1.24c0.81-0.07,1.59,0.23,2.12,0.84l18.26,20.65h231.87c1.38,0,2.5,1.12,2.5,2.5
		s-1.12,2.5-2.5,2.5h-233c-0.72,0-1.4-0.31-1.87-0.84l-16.71-18.9l-20.26,34.99c-0.53,0.93-1.6,1.41-2.65,1.2
		c-1.05-0.21-1.85-1.07-1.99-2.13l-21.55-166.33l-18.48,326.15c-0.07,1.31-1.14,2.34-2.46,2.36h-0.03c-1.3,0-2.38-0.99-2.49-2.29
		l-16.23-188.99l-17.04,34.88c-0.39,0.81-1.19,1.34-2.08,1.4c-0.88,0.05-1.76-0.37-2.25-1.12l-23.51-35.73l-18.86,14.82
		c-0.44,0.34-0.98,0.53-1.54,0.53h-115c-0.82,0-1.58-0.4-2.05-1.07l-12.85-18.42l-23.99,37.83c-0.56,0.89-1.63,1.33-2.65,1.1
		c-1.03-0.23-1.81-1.08-1.94-2.12l-21.56-169.04l-18.47,325.86c-0.07,1.32-1.15,2.35-2.47,2.36c-0.01,0-0.02,0-0.02,0
		c-1.31,0-2.4-1.01-2.5-2.32l-13.48-190.71l-15.94,23.92c-0.39,0.58-1,0.97-1.69,1.08c-0.69,0.11-1.39-0.07-1.94-0.5l-26.67-20.96"
		/>
</g>
</svg>
