<?xml version="1.0" encoding="iso-8859-1"?>
<!-- Generator: Adobe Illustrator 18.1.1, SVG Export Plug-In . SVG Version: 6.00 Build 0)  -->
<svg version="1.1" id="Layer_1" xmlns="http://www.w3.org/2000/svg" xmlns:xlink="http://www.w3.org/1999/xlink" x="0px" y="0px"
	 viewBox="0 0 792 612" style="enable-background:new 0 0 792 612;" xml:space="preserve">
<g>
	<polygon style="fill:#6E6E6E;" points="657.118,534.66 649.29,504.736 641.39,501.17 641.39,486.5 611.393,485.925 
		597.618,440.868 583.001,507.475 569.954,482.435 569.954,482.659 567.454,482.659 567.454,472.228 582.036,500.211 
		597.22,431.017 613.254,483.46 643.89,484.047 643.89,499.555 651.407,502.949 656.938,524.094 677.981,430.772 697.448,502.072 
		707.636,481.409 772.266,481.409 772.266,483.909 709.19,483.909 696.774,509.094 678.213,441.112 	"/>
</g>
<g style="enable-background:new    ;">
	<path style="fill:#6E6E6E;" d="M187.242,168.448h-0.467l-61.368,155.408L64.273,168.448h-0.467L33.706,317.869H22.973
		l37.801-186.537l64.634,164.267l64.868-164.267l37.801,186.537h-10.733L187.242,168.448z"/>
	<path style="fill:#6E6E6E;" d="M350.338,262.554c0,32.806-24.967,57.709-56.701,57.709c-31.034,0-56.001-26.101-56.001-57.47
		c0-31.848,24.734-57.949,56.001-57.949C325.371,204.845,350.338,229.749,350.338,262.554z M248.136,262.794
		c0,25.143,19.367,47.413,44.801,47.413c26.367,0,46.901-20.594,46.901-47.413c0-27.298-20.3-47.892-46.901-47.892
		C267.27,214.902,248.136,237.172,248.136,262.794z"/>
	<path style="fill:#6E6E6E;" d="M460.003,297.994h-0.467c-7.934,14.128-25.201,22.27-41.067,22.27
		c-32.667,0-53.201-26.101-53.201-58.428s20.3-56.991,52.734-56.991c16.566,0,32.434,7.663,41.534,21.551h0.467V120.317h10.5
		v197.552h-10.5V297.994z M460.702,260.639c0-25.622-17.033-45.736-43.167-45.736c-24.733,0-41.767,22.988-41.767,46.934
		c0,25.382,16.334,48.371,42.467,48.371C445.769,310.207,460.702,287.218,460.702,260.639z"/>
	<path style="fill:#6E6E6E;" d="M506.434,263.512c-0.7,28.016,18.2,46.695,43.168,46.695c16.8,0,30.333-10.297,38.033-25.144
		l8.867,5.268c-9.8,19.157-27.067,29.933-48.301,29.933c-31.967,0-52.268-26.58-52.268-57.949c0-30.89,20.767-57.47,52.268-57.47
		c32.667,0,52.034,26.819,51.801,58.667H506.434z M589.502,253.455c-2.566-20.354-18.9-38.553-41.067-38.553
		c-21.934,0-40.134,17.72-42.001,38.553H589.502z"/>
	<path style="fill:#6E6E6E;" d="M635.932,221.607h0.467c4.2-10.057,11.9-16.762,23.334-16.762c4.2,0,7.7,0.958,11.434,2.634
		l-5.601,9.578c-2.566-1.437-4.666-2.155-7.467-2.155c-23.566,0-22.167,30.171-22.167,46.455v56.512h-10.5V207.24h10.5V221.607z"/>
	<path style="fill:#6E6E6E;" d="M702.663,224.481h0.467c6.301-12.212,17.967-19.636,31.968-19.636
		c27.767,0,35.467,17.72,35.467,46.215v66.809h-10.5v-66.809c0-19.875-2.333-36.158-25.9-36.158
		c-27.067,0-31.501,25.861-31.501,48.37v54.597h-10.5V207.24h10.5V224.481z"/>
</g>
<g style="enable-background:new    ;">
	<path style="fill:#6E6E6E;" d="M181.258,545.668L33.555,384.514v155.168h-11.2V356.737l147.703,159.956V359.132h11.2V545.668z"/>
	<path style="fill:#6E6E6E;" d="M293.953,429.053v66.329c0,11.255,0.233,22.51-6.534,31.848
		c-7.467,10.058-20.067,14.847-32.201,14.847c-12.133,0-24.733-4.789-32.2-14.847c-6.767-9.338-6.534-20.593-6.534-31.848v-66.329
		h10.5v62.498c0,21.312,2.333,40.469,28.233,40.469c25.901,0,28.234-19.157,28.234-40.469v-62.498H293.953z"/>
	<path style="fill:#6E6E6E;" d="M338.748,443.42h0.467c4.2-10.057,11.9-16.762,23.333-16.762c4.2,0,7.7,0.958,11.434,2.634
		l-5.6,9.578c-2.567-1.437-4.667-2.154-7.467-2.154c-23.567,0-22.167,30.171-22.167,46.454v56.512h-10.5V429.053h10.5V443.42z"/>
	<path style="fill:#6E6E6E;" d="M438.381,449.167c-3.501-7.662-10.501-12.451-18.9-12.451c-9.101,0-18.434,7.662-18.434,17.24
		c0,26.58,52.501,13.649,52.501,53.639c0,20.354-15.4,34.481-34.768,34.481c-17.967,0-32.667-11.255-37.1-29.214l10.267-3.353
		c3.967,13.171,12.6,22.51,26.833,22.51c13.533,0,24.267-11.016,24.267-24.904c0-13.648-10.267-17.959-21-21.79
		c-14.7-5.508-31.5-11.973-31.5-30.65c0-16.762,13.767-28.017,29.399-28.017c10.968,0,22.867,7.423,27.534,17.72L438.381,449.167z"
		/>
	<path style="fill:#6E6E6E;" d="M480.612,485.325c-0.7,28.017,18.2,46.694,43.168,46.694c16.8,0,30.334-10.297,38.033-25.144
		l8.867,5.269c-9.8,19.156-27.067,29.932-48.301,29.932c-31.967,0-52.268-26.58-52.268-57.948c0-30.89,20.767-57.47,52.268-57.47
		c32.667,0,52.034,26.819,51.801,58.667H480.612z M563.681,475.268c-2.566-20.354-18.9-38.552-41.067-38.552
		c-21.934,0-40.134,17.72-42.001,38.552H563.681z"/>
</g>
<g>
	<rect x="22.189" y="0.595" style="fill:none;" width="205.302" height="123.563"/>
</g>
<g style="enable-background:new    ;">
	<path style="fill:#6E6E6E;" d="M50.9,98.225h-5.535V14.317H22.88V8.991h50.506v5.326H50.9V98.225z"/>
	<path style="fill:#6E6E6E;" d="M88.146,0.589V52.07h0.23c3.114-6.036,8.879-9.705,15.798-9.705
		c13.722,0,17.527,8.758,17.527,22.841v33.019h-5.189V65.206c0-9.823-1.153-17.87-12.799-17.87
		c-13.376,0-15.567,12.781-15.567,23.906v26.983h-5.189V0.589H88.146z"/>
	<path style="fill:#6E6E6E;" d="M139.458,71.36c-0.346,13.847,8.994,23.078,21.333,23.078c8.302,0,14.99-5.089,18.795-12.426
		l4.382,2.604c-4.843,9.468-13.376,14.793-23.869,14.793c-15.797,0-25.83-13.137-25.83-28.64c0-15.267,10.263-28.403,25.83-28.403
		c16.144,0,25.714,13.255,25.599,28.995H139.458z M180.509,66.39c-1.269-10.06-9.34-19.054-20.295-19.054
		c-10.839,0-19.833,8.757-20.756,19.054H180.509z"/>
</g>
</svg>
