<?xml version="1.0" encoding="iso-8859-1"?>
<!-- Generator: Adobe Illustrator 18.1.1, SVG Export Plug-In . SVG Version: 6.00 Build 0)  -->
<svg version="1.1" id="Layer_1" xmlns="http://www.w3.org/2000/svg" xmlns:xlink="http://www.w3.org/1999/xlink" x="0px" y="0px"
	 viewBox="0 0 792 612" style="enable-background:new 0 0 792 612;" xml:space="preserve">
<path style="fill:#DBFCFA;" d="M4.543,147.782l14.422,67.426l-4.275,31.338l6.377,15.265l33.519,70.407
	c0,0,170.372,77.522,176.749,92.787c6.377,15.265,34.836,99.538,34.836,99.538l7.531-43.172l22.268-10.788l13.823-29.846
	l84.008-29.294c0,0,38.594-27.134,44.361-25.463c5.763,1.671,62.04,30.13,62.04,30.13l10.695,16.116
	c2.771,4.174,8.69,4.403,11.756,0.451l2.884-3.715c2.145-2.767,2.639-6.517,1.279-9.77l-10.551-25.253l22.843-40.009l51.636-12.502
	c5.515-1.333,10.644-3.98,14.981-7.722l10.563-9.117c8.911-7.691,14.635-18.568,16.015-30.433l6.047-51.982l108.694-28.521
	l13.641,2.818c5.934,1.228,11.985-1.391,15.234-6.634c7.839-12.642,19.746-37.242,11.181-59.712
	c-2.246-5.899-8.748-8.822-14.503-6.541l-68.79,27.223c-3.948,1.562-8.192,2.184-12.409,1.819l-65.934-5.732l-41.804-1.904
	l-42.764,9.125c-2.588,0.552-4.691,2.487-5.503,5.072l-3.661,11.628l-28.56-2.534l-3.296-30.981c0,0,3.56-36.406,3.571-46.876
	c0.008-6.813-39.737,1.889-39.737,1.889L460.766,89.1L45.17,81.635L16.209,112.2L2.172,95.353L4.543,147.782z"/>
<g>
	<path style="fill:#FFFFFF;" d="M39.554,210.226c0,0,9.199-20.344,12.657-37.253c0.148-0.731-0.012-1.508-0.49-2.071
		c-0.999-1.181-3.509-1.667-9.615,5.845c-1.057,1.302-2.549,2.196-4.189,2.382c-2.141,0.241-4.582-0.641-4.516-5.969
		c0.019-1.671,0.315-3.323,0.816-4.912c2.118-6.719,8.67-28.086,26.737-32.539c0,0,1.671,6.272,7.197,14.795l0,0
		c5.526-8.519,5.79-15.071,5.79-15.071c18.067,4.457,25.567,26.1,27.685,32.819c0.501,1.589,0.797,3.241,0.816,4.912
		c0.062,5.328-2.374,6.21-4.516,5.969c-1.64-0.187-3.132-1.08-4.189-2.382c-6.105-7.512-8.616-7.026-9.615-5.845
		c-0.474,0.564-0.637,1.341-0.49,2.071c3.459,16.909,17.519,37.253,17.519,37.253H85.213v23.986c0,2.215-0.917,4.36-2.6,5.748
		c-1.469,1.216-3.463,1.83-5.693-0.26c-1.508-1.411-2.355-3.424-2.421-5.518l-0.793-23.959H67.01l-0.793,23.959
		c-0.07,2.095-0.913,4.104-2.421,5.518c-2.235,2.091-4.224,1.477-5.693,0.26c-1.683-1.387-2.6-3.533-2.6-5.748V210.23H39.554"/>
	<path style="fill:#231F20;stroke:#231F20;stroke-width:0.0433;stroke-miterlimit:10;" d="M84.98,210.226v23.986
		c0,2.215-0.917,4.36-2.6,5.748c-1.469,1.216-3.463,1.83-5.693-0.26c-1.508-1.411-2.355-3.424-2.421-5.518l-0.793-23.959"/>
	<path style="fill:#231F20;stroke:#231F20;stroke-width:0.0433;stroke-miterlimit:10;" d="M66.738,210.226l-0.793,23.959
		c-0.07,2.095-0.913,4.104-2.421,5.518c-2.235,2.091-4.224,1.477-5.693,0.26c-1.683-1.387-2.6-3.533-2.6-5.748V210.23"/>
	
		<ellipse style="fill:#F6D19F;stroke:#F6D19F;stroke-width:0.0866;stroke-miterlimit:10;" cx="66.866" cy="121.706" rx="12.949" ry="13.291"/>
	<path style="fill:#FFFFFF;" d="M79.815,113.615c-13.376-14.768-24.988-0.758-24.988-0.758l-5.612-11.433
		c0,0,16.237-8.107,34.447-0.288L79.815,113.615z"/>
	<polygon style="fill:#E12946;" points="65.817,101.416 63.501,101.416 63.516,103.697 65.833,103.713 65.817,105.912 
		68.432,105.912 68.432,103.666 70.69,103.666 70.733,101.416 68.432,101.416 68.452,99.045 65.817,99.045 	"/>
	<polygon style="fill:#E12946;" points="75.214,155.737 72.898,155.737 72.913,158.015 75.233,158.03 75.214,160.234 
		77.833,160.234 77.833,157.984 80.091,157.984 80.13,155.737 77.833,155.737 77.849,153.363 75.214,153.363 	"/>
	<ellipse style="fill:#E12946;" cx="68.456" cy="174.061" rx="1.403" ry="1.442"/>
	<ellipse style="fill:#E12946;" cx="68.456" cy="182.797" rx="1.403" ry="1.442"/>
	<ellipse style="fill:#E12946;" cx="68.456" cy="192.637" rx="1.403" ry="1.442"/>
	<path style="fill:#A4D8C8;stroke:#A4D8C8;stroke-width:0.087;stroke-miterlimit:10;" d="M132.201,208.209h30.375
		c0,0-0.241-19.587-1.644-37.207c-0.047-0.583-0.21-2.561,0.155-3.02c0.975-1.216,3.735-12.902,10.162,7.061
		c0.494,1.535,2.483,2.134,4.088,2.367c2.351,0.342,5.18-0.505,4.811-6.746c-0.082-1.383-0.404-2.748-0.828-4.069
		c-2.165-6.781-6.362-32.396-28.268-32.396c0,0-0.272,6.482-5.915,14.911l0,0c-5.647-8.429-7.357-14.639-7.357-14.639
		c-22.043,0.451-25.171,25.556-27.328,32.205c-0.431,1.337-0.731,2.705-0.804,4.108c-0.326,6.129,2.479,6.96,4.815,6.626
		c1.609-0.233,3.742-0.793,4.096-2.371c2.938-13.167,6.113-12.09,8.165-9.696c1.162,1.36,2.11,3.995,2.196,5.779l0.109,2.2
		L132.201,208.209z"/>
	<path style="fill:#231F20;stroke:#231F20;stroke-width:0.0461;stroke-miterlimit:10;" d="M162.681,208.209v26.675
		c0,2.464-0.937,4.846-2.654,6.393c-1.504,1.352-3.536,2.036-5.822-0.291c-1.543-1.57-2.406-3.805-2.476-6.136l-0.812-26.64H162.681
		z"/>
	<path style="fill:#231F20;stroke:#231F20;stroke-width:0.0461;stroke-miterlimit:10;" d="M144.035,208.209l-0.812,26.64
		c-0.07,2.328-0.937,4.566-2.476,6.136c-2.281,2.324-4.318,1.64-5.822,0.291c-1.718-1.543-2.654-3.929-2.654-6.393v-26.675H144.035z
		"/>
	
		<ellipse style="fill:#F6D19F;stroke:#F6D19F;stroke-width:0.0885;stroke-miterlimit:10;" cx="143.825" cy="120.171" rx="13.236" ry="13.582"/>
	<path style="fill:#7E431C;" d="M156.413,115.962l0.152-6.14c-0.583-6.245-10.539-4.893-10.539-4.893
		c-4.625-3.645-8.398-2.025-10.489-0.42c-0.136,0.105-0.276,0.198-0.42,0.284c-2.697,1.601-4.473,4.784-4.489,8.437
		c-0.004,1.038,0.614,2.736,0.614,2.736l1.928-3.404c0,0,3.579,1.298,5.783-0.692c0,0,8.095,4.461,16.361,2.608L156.413,115.962z"/>
	<path style="fill:#6D6E70;stroke:#231F20;stroke-width:0.0433;stroke-miterlimit:10;" d="M146.13,167.361
		c1.893-3.167-1.994-7.792-1.994-7.792c-15.805-2.165-6.354-25.086-6.354-25.086s-7.531,24.534,7.512,23.119
		c0,0,11.484-1.228,6.004-23.236c0,0,7.807,19.622-4.656,24.646c0,0,2.433,10.776-1.446,10.854L146.13,167.361"/>
	<path style="fill:#231F20;stroke:#231F20;stroke-width:0.0433;stroke-miterlimit:10;" d="M149.192,167.722
		c0.381,1.554-0.49,3.121-1.943,3.494s-2.938-0.583-3.319-2.137c-0.381-1.554,0.49-3.121,1.943-3.494
		C147.327,165.208,148.811,166.164,149.192,167.722z"/>
</g>
<g>
	<path style="fill:#FFFFFF;" d="M204.233,209.966c0,0,9.199-20.344,12.657-37.253c0.148-0.731-0.012-1.508-0.49-2.071
		c-0.999-1.181-3.509-1.667-9.615,5.845c-1.057,1.302-2.549,2.196-4.189,2.382c-2.141,0.241-4.582-0.641-4.516-5.969
		c0.019-1.671,0.315-3.323,0.816-4.912c2.118-6.719,8.67-28.086,26.737-32.539c0,0,1.671,6.272,7.197,14.795l0,0
		c5.526-8.519,5.79-15.071,5.79-15.071c18.067,4.458,25.567,26.1,27.685,32.819c0.501,1.589,0.797,3.241,0.816,4.912
		c0.062,5.328-2.374,6.21-4.516,5.969c-1.64-0.187-3.132-1.08-4.189-2.382c-6.105-7.512-8.616-7.026-9.615-5.845
		c-0.474,0.564-0.637,1.341-0.49,2.071c3.459,16.909,17.519,37.253,17.519,37.253h-15.941v23.986c0,2.215-0.917,4.36-2.6,5.748
		c-1.469,1.216-3.463,1.83-5.693-0.26c-1.508-1.411-2.355-3.424-2.421-5.518l-0.797-23.959h-6.696l-0.793,23.959
		c-0.07,2.095-0.913,4.104-2.421,5.518c-2.235,2.091-4.224,1.477-5.693,0.26c-1.683-1.387-2.6-3.533-2.6-5.748v-23.99H204.233"/>
	<path style="fill:#231F20;stroke:#231F20;stroke-width:0.0433;stroke-miterlimit:10;" d="M249.659,209.966v23.986
		c0,2.215-0.917,4.36-2.6,5.748c-1.469,1.216-3.463,1.83-5.693-0.26c-1.508-1.411-2.355-3.424-2.421-5.518l-0.797-23.955"/>
	<path style="fill:#231F20;stroke:#231F20;stroke-width:0.0433;stroke-miterlimit:10;" d="M231.417,209.966l-0.793,23.959
		c-0.07,2.095-0.913,4.104-2.421,5.518c-2.235,2.091-4.224,1.477-5.693,0.26c-1.683-1.387-2.6-3.533-2.6-5.748v-23.99"/>
	
		<ellipse style="fill:#F6D19F;stroke:#F6D19F;stroke-width:0.0866;stroke-miterlimit:10;" cx="231.545" cy="121.449" rx="12.949" ry="13.291"/>
	<path style="fill:#FFFFFF;" d="M244.494,113.354c-13.376-14.768-24.988-0.758-24.988-0.758l-5.612-11.429
		c0,0,16.237-8.107,34.447-0.288L244.494,113.354z"/>
	<polygon style="fill:#E12946;" points="230.496,101.159 228.179,101.159 228.195,103.437 230.511,103.452 230.496,105.656 
		233.111,105.656 233.111,103.406 235.369,103.406 235.412,101.159 233.111,101.159 233.13,98.785 230.496,98.785 	"/>
	<polygon style="fill:#E12946;" points="239.892,155.477 237.576,155.477 237.592,157.758 239.912,157.77 239.892,159.973 
		242.512,159.973 242.512,157.723 244.77,157.723 244.809,155.477 242.512,155.477 242.527,153.102 239.892,153.102 	"/>
	<ellipse style="fill:#E12946;" cx="233.134" cy="173.801" rx="1.403" ry="1.442"/>
	<ellipse style="fill:#E12946;" cx="233.134" cy="182.537" rx="1.403" ry="1.442"/>
	<ellipse style="fill:#E12946;" cx="233.134" cy="192.381" rx="1.403" ry="1.442"/>
	<path style="fill:#A4D8C8;stroke:#A4D8C8;stroke-width:0.087;stroke-miterlimit:10;" d="M296.88,207.949h30.375
		c0,0-0.241-19.587-1.644-37.207c-0.047-0.583-0.21-2.561,0.155-3.02c0.975-1.216,3.735-12.902,10.162,7.061
		c0.494,1.535,2.483,2.134,4.088,2.367c2.351,0.342,5.18-0.505,4.811-6.746c-0.082-1.383-0.404-2.748-0.828-4.069
		c-2.165-6.781-6.362-32.396-28.268-32.396c0,0-0.272,6.482-5.915,14.911l0,0c-5.647-8.429-7.357-14.639-7.357-14.639
		c-22.043,0.451-25.171,25.556-27.328,32.205c-0.431,1.337-0.731,2.705-0.804,4.108c-0.326,6.129,2.479,6.96,4.815,6.626
		c1.609-0.233,3.742-0.793,4.096-2.371c2.938-13.167,6.113-12.09,8.165-9.696c1.162,1.36,2.11,3.995,2.196,5.779l0.109,2.2
		L296.88,207.949z"/>
	<path style="fill:#231F20;stroke:#231F20;stroke-width:0.0461;stroke-miterlimit:10;" d="M327.36,207.949v26.675
		c0,2.464-0.937,4.846-2.654,6.393c-1.504,1.352-3.536,2.036-5.822-0.291c-1.543-1.57-2.406-3.805-2.476-6.136l-0.812-26.64H327.36z
		"/>
	<path style="fill:#231F20;stroke:#231F20;stroke-width:0.0461;stroke-miterlimit:10;" d="M308.714,207.949l-0.812,26.64
		c-0.07,2.328-0.937,4.566-2.476,6.136c-2.281,2.324-4.318,1.64-5.822,0.291c-1.718-1.543-2.654-3.929-2.654-6.393v-26.675H308.714z
		"/>
	
		<ellipse style="fill:#F6D19F;stroke:#F6D19F;stroke-width:0.0885;stroke-miterlimit:10;" cx="308.504" cy="119.91" rx="13.236" ry="13.582"/>
	<path style="fill:#7E431C;" d="M321.091,115.702l0.152-6.14c-0.583-6.245-10.539-4.893-10.539-4.893
		c-4.625-3.645-8.398-2.025-10.489-0.42c-0.136,0.105-0.276,0.198-0.42,0.284c-2.697,1.601-4.473,4.784-4.489,8.437
		c-0.004,1.038,0.614,2.736,0.614,2.736l1.928-3.404c0,0,3.579,1.298,5.783-0.692c0,0,8.095,4.461,16.361,2.608L321.091,115.702z"/>
	<path style="fill:#6D6E70;stroke:#231F20;stroke-width:0.0433;stroke-miterlimit:10;" d="M310.808,167.101
		c1.893-3.167-1.994-7.792-1.994-7.792c-15.805-2.165-6.354-25.086-6.354-25.086s-7.531,24.534,7.512,23.119
		c0,0,11.484-1.228,6.004-23.236c0,0,7.807,19.622-4.656,24.646c0,0,2.433,10.777-1.446,10.854L310.808,167.101"/>
	<path style="fill:#231F20;stroke:#231F20;stroke-width:0.0433;stroke-miterlimit:10;" d="M313.871,167.462
		c0.381,1.554-0.49,3.121-1.943,3.494c-1.453,0.373-2.938-0.583-3.319-2.137s0.49-3.121,1.943-3.494
		C312.005,164.948,313.49,165.908,313.871,167.462z"/>
</g>
<g>
	<path style="fill:#FFFFFF;" d="M356.281,234.185c0,0,9.199-20.344,12.657-37.253c0.148-0.731-0.012-1.508-0.49-2.071
		c-0.999-1.181-3.509-1.667-9.615,5.845c-1.057,1.302-2.549,2.196-4.189,2.382c-2.141,0.241-4.582-0.641-4.516-5.969
		c0.019-1.671,0.315-3.323,0.816-4.912c2.118-6.719,8.67-28.086,26.737-32.539c0,0,1.671,6.272,7.197,14.795l0,0
		c5.526-8.519,5.79-15.071,5.79-15.071c18.067,4.457,25.567,26.1,27.685,32.819c0.501,1.589,0.797,3.241,0.816,4.912
		c0.062,5.328-2.374,6.21-4.516,5.969c-1.64-0.187-3.132-1.08-4.189-2.382c-6.105-7.512-8.616-7.026-9.615-5.845
		c-0.474,0.563-0.637,1.341-0.49,2.071c3.459,16.909,17.519,37.253,17.519,37.253H401.94v23.986c0,2.215-0.917,4.36-2.6,5.748
		c-1.469,1.216-3.463,1.83-5.693-0.26c-1.508-1.411-2.355-3.424-2.421-5.518l-0.793-23.959h-6.696l-0.793,23.959
		c-0.07,2.095-0.913,4.104-2.421,5.518c-2.235,2.091-4.224,1.477-5.693,0.26c-1.683-1.387-2.6-3.533-2.6-5.748v-23.986h-15.949"/>
	<path style="fill:#231F20;stroke:#231F20;stroke-width:0.0433;stroke-miterlimit:10;" d="M401.707,234.185v23.986
		c0,2.215-0.917,4.36-2.6,5.748c-1.469,1.216-3.463,1.83-5.693-0.26c-1.508-1.411-2.355-3.424-2.421-5.518l-0.793-23.959"/>
	<path style="fill:#231F20;stroke:#231F20;stroke-width:0.0433;stroke-miterlimit:10;" d="M383.465,234.185l-0.793,23.959
		c-0.07,2.095-0.913,4.104-2.421,5.518c-2.235,2.091-4.224,1.477-5.693,0.26c-1.683-1.387-2.6-3.533-2.6-5.748v-23.986"/>
	
		<ellipse style="fill:#F6D19F;stroke:#F6D19F;stroke-width:0.0866;stroke-miterlimit:10;" cx="383.593" cy="145.664" rx="12.949" ry="13.291"/>
	<path style="fill:#FFFFFF;" d="M396.542,137.569c-13.376-14.768-24.988-0.758-24.988-0.758l-5.612-11.429
		c0,0,16.237-8.107,34.447-0.288L396.542,137.569z"/>
	<polygon style="fill:#E12946;" points="382.544,125.374 380.228,125.374 380.243,127.656 382.56,127.667 382.544,129.871 
		385.159,129.871 385.159,127.621 387.417,127.621 387.46,125.374 385.159,125.374 385.179,123 382.544,123 	"/>
	<polygon style="fill:#E12946;" points="391.941,179.692 389.625,179.692 389.64,181.973 391.96,181.985 391.941,184.188 
		394.56,184.188 394.56,181.942 396.818,181.942 396.857,179.692 394.56,179.692 394.576,177.321 391.941,177.321 	"/>
	<ellipse style="fill:#E12946;" cx="385.183" cy="198.016" rx="1.403" ry="1.442"/>
	<ellipse style="fill:#E12946;" cx="385.183" cy="206.752" rx="1.403" ry="1.442"/>
	<ellipse style="fill:#E12946;" cx="385.183" cy="216.596" rx="1.403" ry="1.442"/>
	<path style="fill:#A4D8C8;stroke:#A4D8C8;stroke-width:0.087;stroke-miterlimit:10;" d="M448.928,232.164h30.375
		c0,0-0.241-19.587-1.644-37.207c-0.047-0.583-0.21-2.561,0.155-3.02c0.975-1.216,3.735-12.902,10.162,7.061
		c0.494,1.535,2.483,2.134,4.088,2.367c2.351,0.342,5.18-0.505,4.811-6.746c-0.082-1.383-0.404-2.748-0.828-4.069
		c-2.165-6.781-6.362-32.396-28.268-32.396c0,0-0.272,6.482-5.915,14.911l0,0c-5.647-8.429-7.357-14.639-7.357-14.639
		c-22.043,0.451-25.171,25.556-27.328,32.205c-0.431,1.337-0.731,2.705-0.804,4.108c-0.326,6.129,2.479,6.96,4.815,6.626
		c1.609-0.233,3.742-0.793,4.096-2.371c2.938-13.167,6.113-12.09,8.165-9.696c1.162,1.36,2.11,3.995,2.196,5.779l0.109,2.2
		L448.928,232.164z"/>
	<path style="fill:#231F20;stroke:#231F20;stroke-width:0.0461;stroke-miterlimit:10;" d="M479.408,232.164v26.675
		c0,2.464-0.937,4.846-2.654,6.393c-1.504,1.352-3.536,2.036-5.822-0.291c-1.543-1.57-2.406-3.805-2.476-6.136l-0.812-26.64H479.408
		z"/>
	<path style="fill:#231F20;stroke:#231F20;stroke-width:0.0461;stroke-miterlimit:10;" d="M460.762,232.164l-0.812,26.64
		c-0.07,2.328-0.937,4.566-2.476,6.136c-2.281,2.324-4.318,1.64-5.822,0.291c-1.718-1.543-2.654-3.929-2.654-6.393v-26.675H460.762z
		"/>
	
		<ellipse style="fill:#F6D19F;stroke:#F6D19F;stroke-width:0.0885;stroke-miterlimit:10;" cx="460.552" cy="144.129" rx="13.236" ry="13.582"/>
	<path style="fill:#7E431C;" d="M473.14,139.92l0.152-6.14c-0.583-6.245-10.539-4.893-10.539-4.893
		c-4.625-3.645-8.398-2.025-10.489-0.42c-0.136,0.105-0.276,0.198-0.42,0.284c-2.697,1.601-4.473,4.784-4.489,8.437
		c-0.004,1.038,0.614,2.736,0.614,2.736l1.928-3.404c0,0,3.579,1.298,5.783-0.692c0,0,8.095,4.461,16.361,2.608L473.14,139.92z"/>
	<path style="fill:#6D6E70;stroke:#231F20;stroke-width:0.0433;stroke-miterlimit:10;" d="M462.857,191.32
		c1.893-3.167-1.994-7.792-1.994-7.792c-15.805-2.165-6.354-25.086-6.354-25.086s-7.531,24.534,7.512,23.119
		c0,0,11.484-1.228,6.004-23.236c0,0,7.807,19.622-4.656,24.646c0,0,2.433,10.777-1.446,10.854L462.857,191.32"/>
	<path style="fill:#231F20;stroke:#231F20;stroke-width:0.0433;stroke-miterlimit:10;" d="M465.919,191.677
		c0.381,1.554-0.49,3.121-1.943,3.494c-1.453,0.373-2.938-0.583-3.319-2.137c-0.381-1.554,0.49-3.121,1.943-3.494
		C464.054,189.163,465.538,190.123,465.919,191.677z"/>
</g>
<g>
	<path style="fill:#FFFFFF;" d="M326.077,355.617c0,0,7.407-16.384,10.194-30.002c0.12-0.587-0.012-1.212-0.393-1.667
		c-0.804-0.952-2.825-1.345-7.741,4.706c-0.851,1.049-2.052,1.768-3.373,1.916c-1.725,0.194-3.688-0.517-3.637-4.807
		c0.016-1.345,0.253-2.674,0.657-3.956c1.706-5.413,6.984-22.618,21.534-26.205c0,0,1.349,5.052,5.794,11.915l0,0
		c4.45-6.863,4.663-12.137,4.663-12.137c14.55,3.587,20.589,21.017,22.295,26.43c0.404,1.279,0.641,2.612,0.657,3.956
		c0.051,4.29-1.912,5.002-3.637,4.807c-1.321-0.152-2.522-0.871-3.373-1.916c-4.916-6.051-6.937-5.658-7.741-4.706
		c-0.385,0.455-0.513,1.08-0.393,1.667c2.786,13.617,14.111,30.002,14.111,30.002h-12.836v19.318c0,1.784-0.738,3.509-2.095,4.629
		c-1.185,0.979-2.786,1.473-4.586-0.21c-1.216-1.139-1.896-2.755-1.951-4.442l-0.641-19.295h-5.394l-0.641,19.295
		c-0.054,1.687-0.738,3.307-1.951,4.442c-1.799,1.683-3.4,1.189-4.586,0.21c-1.352-1.119-2.095-2.845-2.095-4.629v-19.318h-12.84"/>
	<path style="fill:#231F20;stroke:#231F20;stroke-width:0.0433;stroke-miterlimit:10;" d="M362.662,355.617v19.318
		c0,1.784-0.738,3.509-2.095,4.628c-1.185,0.979-2.786,1.473-4.586-0.21c-1.216-1.139-1.896-2.755-1.951-4.442l-0.641-19.295"/>
	<path style="fill:#231F20;stroke:#231F20;stroke-width:0.0433;stroke-miterlimit:10;" d="M347.968,355.617l-0.641,19.295
		c-0.054,1.687-0.738,3.307-1.951,4.442c-1.799,1.683-3.4,1.189-4.586,0.21c-1.352-1.119-2.095-2.845-2.095-4.628v-19.318"/>
	
		<ellipse style="fill:#F6D19F;stroke:#F6D19F;stroke-width:0.0866;stroke-miterlimit:10;" cx="348.073" cy="284.328" rx="10.431" ry="10.703"/>
	<path style="fill:#FFFFFF;" d="M358.504,277.811c-10.773-11.892-20.127-0.61-20.127-0.61l-4.52-9.206
		c0,0,13.077-6.529,27.744-0.233L358.504,277.811z"/>
	<polygon style="fill:#E12946;" points="347.226,267.987 345.361,267.987 345.372,269.825 347.242,269.837 347.226,271.609 
		349.332,271.609 349.332,269.798 351.151,269.798 351.186,267.987 349.332,267.987 349.348,266.079 347.226,266.079 	"/>
	<polygon style="fill:#E12946;" points="354.796,311.734 352.931,311.734 352.943,313.568 354.808,313.58 354.796,315.356 
		356.903,315.356 356.903,313.545 358.721,313.545 358.756,311.734 356.903,311.734 356.918,309.822 354.796,309.822 	"/>
	<ellipse style="fill:#E12946;" cx="349.352" cy="326.49" rx="1.131" ry="1.162"/>
	<ellipse style="fill:#E12946;" cx="349.352" cy="333.528" rx="1.131" ry="1.162"/>
	<ellipse style="fill:#E12946;" cx="349.352" cy="341.452" rx="1.131" ry="1.162"/>
	<path style="fill:#A4D8C8;stroke:#A4D8C8;stroke-width:0.087;stroke-miterlimit:10;" d="M400.693,353.993h24.464
		c0,0-0.194-15.774-1.321-29.963c-0.039-0.47-0.171-2.064,0.124-2.433c0.785-0.979,3.008-10.392,8.184,5.686
		c0.396,1.236,2.001,1.718,3.292,1.904c1.893,0.276,4.174-0.404,3.875-5.433c-0.066-1.115-0.326-2.211-0.665-3.28
		c-1.745-5.46-5.122-26.088-22.765-26.088c0,0-0.218,5.219-4.764,12.008l0,0c-4.547-6.789-5.923-11.791-5.923-11.791
		c-17.752,0.361-20.274,20.581-22.008,25.937c-0.35,1.076-0.587,2.18-0.649,3.307c-0.264,4.935,1.994,5.608,3.878,5.336
		c1.294-0.187,3.016-0.641,3.299-1.908c2.367-10.605,4.924-9.739,6.575-7.807c0.937,1.096,1.698,3.218,1.768,4.656l0.086,1.772
		L400.693,353.993z"/>
	<path style="fill:#231F20;stroke:#231F20;stroke-width:0.0461;stroke-miterlimit:10;" d="M425.234,353.993v21.483
		c0,1.982-0.754,3.906-2.137,5.149c-1.212,1.088-2.849,1.64-4.687-0.233c-1.24-1.263-1.935-3.066-1.994-4.939l-0.653-21.456h9.471
		V353.993z"/>
	<path style="fill:#231F20;stroke:#231F20;stroke-width:0.0461;stroke-miterlimit:10;" d="M410.222,353.993l-0.653,21.456
		c-0.058,1.877-0.754,3.676-1.994,4.939c-1.838,1.873-3.478,1.321-4.687,0.233c-1.384-1.244-2.137-3.163-2.137-5.149v-21.483h9.471
		V353.993z"/>
	
		<ellipse style="fill:#F6D19F;stroke:#F6D19F;stroke-width:0.0885;stroke-miterlimit:10;" cx="410.051" cy="283.093" rx="10.66" ry="10.94"/>
	<path style="fill:#7E431C;" d="M420.19,279.704l0.124-4.947c-0.47-5.029-8.487-3.941-8.487-3.941
		c-3.723-2.934-6.762-1.632-8.449-0.338c-0.109,0.086-0.222,0.159-0.338,0.229c-2.172,1.29-3.603,3.851-3.614,6.797
		c-0.004,0.836,0.494,2.203,0.494,2.203l1.551-2.744c0,0,2.884,1.045,4.656-0.56c0,0,6.521,3.595,13.178,2.099L420.19,279.704z"/>
	<path style="fill:#6D6E70;stroke:#231F20;stroke-width:0.0433;stroke-miterlimit:10;" d="M411.908,321.096
		c1.523-2.549-1.605-6.276-1.605-6.276c-12.731-1.741-5.114-20.204-5.114-20.204s-6.066,19.761,6.051,18.619
		c0,0,9.249-0.991,4.834-18.716c0,0,6.288,15.801-3.75,19.851c0,0,1.959,8.678-1.162,8.74L411.908,321.096"/>
	<path style="fill:#231F20;stroke:#231F20;stroke-width:0.0433;stroke-miterlimit:10;" d="M414.376,321.388
		c0.307,1.251-0.393,2.514-1.562,2.814c-1.17,0.303-2.367-0.47-2.674-1.722c-0.307-1.251,0.392-2.514,1.562-2.814
		C412.872,319.363,414.069,320.132,414.376,321.388z"/>
</g>
<g>
	<path style="fill:#FFFFFF;" d="M190.343,355.411c0,0,7.407-16.384,10.194-30.002c0.12-0.587-0.012-1.213-0.393-1.667
		c-0.804-0.952-2.825-1.345-7.741,4.706c-0.851,1.049-2.052,1.768-3.373,1.916c-1.725,0.194-3.688-0.517-3.638-4.807
		c0.016-1.345,0.253-2.674,0.657-3.956c1.706-5.414,6.984-22.618,21.534-26.205c0,0,1.349,5.052,5.794,11.915l0,0
		c4.45-6.863,4.663-12.137,4.663-12.137c14.55,3.587,20.589,21.017,22.295,26.43c0.404,1.279,0.641,2.612,0.657,3.956
		c0.051,4.29-1.912,5.002-3.638,4.807c-1.321-0.152-2.522-0.87-3.373-1.916c-4.916-6.051-6.937-5.658-7.741-4.706
		c-0.385,0.455-0.513,1.08-0.393,1.667c2.786,13.617,14.111,30.002,14.111,30.002h-12.836v19.318c0,1.784-0.738,3.509-2.095,4.628
		c-1.185,0.979-2.786,1.473-4.586-0.21c-1.216-1.139-1.896-2.755-1.951-4.442l-0.641-19.295h-5.394l-0.641,19.295
		c-0.054,1.687-0.738,3.307-1.951,4.442c-1.799,1.683-3.4,1.189-4.586,0.21c-1.352-1.119-2.095-2.845-2.095-4.628v-19.318h-12.84"/>
	<path style="fill:#231F20;stroke:#231F20;stroke-width:0.0433;stroke-miterlimit:10;" d="M226.928,355.411v19.318
		c0,1.784-0.738,3.509-2.095,4.629c-1.185,0.979-2.786,1.473-4.586-0.21c-1.216-1.139-1.896-2.755-1.951-4.442l-0.641-19.295"/>
	<path style="fill:#231F20;stroke:#231F20;stroke-width:0.0433;stroke-miterlimit:10;" d="M212.238,355.411l-0.641,19.295
		c-0.054,1.687-0.738,3.307-1.951,4.442c-1.799,1.683-3.4,1.189-4.586,0.21c-1.352-1.119-2.095-2.845-2.095-4.629v-19.318"/>
	
		<ellipse style="fill:#F6D19F;stroke:#F6D19F;stroke-width:0.0866;stroke-miterlimit:10;" cx="212.339" cy="284.119" rx="10.431" ry="10.703"/>
	<path style="fill:#FFFFFF;" d="M222.77,277.601c-10.773-11.892-20.127-0.61-20.127-0.61l-4.52-9.206c0,0,13.077-6.529,27.744-0.233
		L222.77,277.601z"/>
	<polygon style="fill:#E12946;" points="211.496,267.781 209.63,267.781 209.642,269.615 211.508,269.627 211.496,271.399 
		213.602,271.399 213.602,269.588 215.421,269.588 215.452,267.781 213.602,267.781 213.618,265.869 211.496,265.869 	"/>
	<polygon style="fill:#E12946;" points="219.062,311.524 217.197,311.524 217.209,313.362 219.078,313.374 219.062,315.146 
		221.173,315.146 221.173,313.335 222.991,313.335 223.022,311.524 221.173,311.524 221.184,309.612 219.062,309.612 	"/>
	<ellipse style="fill:#E12946;" cx="213.618" cy="326.28" rx="1.131" ry="1.162"/>
	<ellipse style="fill:#E12946;" cx="213.618" cy="333.318" rx="1.131" ry="1.162"/>
	<ellipse style="fill:#E12946;" cx="213.618" cy="341.246" rx="1.131" ry="1.162"/>
	<path style="fill:#A4D8C8;stroke:#A4D8C8;stroke-width:0.087;stroke-miterlimit:10;" d="M264.959,353.783h24.464
		c0,0-0.194-15.774-1.321-29.963c-0.039-0.47-0.171-2.064,0.124-2.433c0.785-0.979,3.008-10.392,8.184,5.686
		c0.396,1.236,2.001,1.718,3.292,1.904c1.893,0.276,4.174-0.404,3.875-5.433c-0.066-1.115-0.326-2.211-0.665-3.28
		c-1.745-5.46-5.122-26.088-22.766-26.088c0,0-0.218,5.219-4.764,12.008l0,0c-4.547-6.789-5.923-11.791-5.923-11.791
		c-17.752,0.361-20.274,20.581-22.008,25.937c-0.35,1.076-0.587,2.18-0.649,3.307c-0.264,4.935,1.994,5.608,3.878,5.336
		c1.294-0.187,3.016-0.641,3.299-1.908c2.367-10.605,4.924-9.739,6.575-7.807c0.937,1.096,1.698,3.218,1.768,4.656l0.086,1.772
		L264.959,353.783z"/>
	<path style="fill:#231F20;stroke:#231F20;stroke-width:0.0461;stroke-miterlimit:10;" d="M289.504,353.783v21.483
		c0,1.982-0.754,3.906-2.137,5.149c-1.212,1.088-2.849,1.64-4.687-0.233c-1.24-1.263-1.935-3.066-1.994-4.939l-0.653-21.456h9.471
		V353.783z"/>
	<path style="fill:#231F20;stroke:#231F20;stroke-width:0.0461;stroke-miterlimit:10;" d="M274.488,353.783l-0.653,21.456
		c-0.058,1.877-0.754,3.676-1.994,4.939c-1.838,1.873-3.478,1.321-4.687,0.233c-1.383-1.244-2.137-3.163-2.137-5.149v-21.483h9.471
		V353.783z"/>
	
		<ellipse style="fill:#F6D19F;stroke:#F6D19F;stroke-width:0.0885;stroke-miterlimit:10;" cx="274.32" cy="282.883" rx="10.66" ry="10.94"/>
	<path style="fill:#7E431C;" d="M284.456,279.494l0.124-4.947c-0.47-5.029-8.487-3.941-8.487-3.941
		c-3.723-2.934-6.762-1.632-8.449-0.338c-0.109,0.085-0.222,0.159-0.338,0.229c-2.172,1.29-3.603,3.851-3.614,6.797
		c-0.004,0.836,0.494,2.203,0.494,2.203l1.551-2.744c0,0,2.884,1.045,4.656-0.56c0,0,6.521,3.595,13.178,2.099L284.456,279.494z"/>
	<path style="fill:#6D6E70;stroke:#231F20;stroke-width:0.0433;stroke-miterlimit:10;" d="M276.174,320.886
		c1.523-2.549-1.605-6.276-1.605-6.276c-12.731-1.741-5.114-20.204-5.114-20.204s-6.066,19.761,6.051,18.619
		c0,0,9.249-0.991,4.834-18.716c0,0,6.288,15.801-3.75,19.851c0,0,1.959,8.678-1.162,8.74L276.174,320.886"/>
	<path style="fill:#231F20;stroke:#231F20;stroke-width:0.0433;stroke-miterlimit:10;" d="M278.642,321.178
		c0.307,1.251-0.392,2.514-1.562,2.814c-1.17,0.303-2.367-0.47-2.674-1.722c-0.307-1.251,0.393-2.514,1.562-2.814
		C277.138,319.153,278.335,319.926,278.642,321.178z"/>
</g>
<g>
	<path style="fill:#FFFFFF;" d="M81.918,323.49c0,0,6.218-13.753,8.557-25.187c0.101-0.494-0.008-1.018-0.33-1.399
		c-0.676-0.801-2.371-1.127-6.502,3.952c-0.715,0.878-1.722,1.485-2.833,1.609c-1.45,0.163-3.097-0.435-3.055-4.034
		c0.012-1.131,0.214-2.246,0.552-3.319c1.434-4.543,5.864-18.988,18.079-22c0,0,1.131,4.24,4.866,10.003l0,0
		c3.735-5.759,3.913-10.19,3.913-10.19c12.214,3.012,17.286,17.647,18.72,22.19c0.338,1.073,0.536,2.192,0.552,3.319
		c0.043,3.603-1.605,4.201-3.055,4.034c-1.111-0.124-2.118-0.731-2.833-1.609c-4.127-5.079-5.825-4.749-6.502-3.952
		c-0.323,0.381-0.431,0.906-0.33,1.399c2.34,11.433,11.845,25.187,11.845,25.187h-10.776v16.217c0,1.496-0.622,2.946-1.757,3.886
		c-0.995,0.82-2.34,1.236-3.851-0.175c-1.018-0.956-1.589-2.312-1.64-3.731l-0.536-16.198h-4.527l-0.532,16.194
		c-0.047,1.415-0.618,2.775-1.64,3.731c-1.512,1.415-2.856,0.999-3.851,0.175c-1.139-0.94-1.757-2.39-1.757-3.886V323.49H81.918"/>
	<path style="fill:#231F20;stroke:#231F20;stroke-width:0.0433;stroke-miterlimit:10;" d="M112.634,323.49v16.217
		c0,1.496-0.622,2.946-1.757,3.886c-0.995,0.82-2.34,1.236-3.851-0.175c-1.018-0.956-1.589-2.312-1.64-3.731l-0.536-16.198"/>
	<path style="fill:#231F20;stroke:#231F20;stroke-width:0.0433;stroke-miterlimit:10;" d="M100.299,323.49l-0.536,16.198
		c-0.047,1.415-0.618,2.775-1.64,3.731c-1.512,1.415-2.856,0.999-3.851,0.175c-1.139-0.94-1.757-2.39-1.757-3.886V323.49"/>
	
		<ellipse style="fill:#F6D19F;stroke:#F6D19F;stroke-width:0.0866;stroke-miterlimit:10;" cx="100.385" cy="263.638" rx="8.756" ry="8.985"/>
	<path style="fill:#FFFFFF;" d="M109.141,258.166c-9.043-9.984-16.897-0.513-16.897-0.513l-3.793-7.73c0,0,10.979-5.483,23.29-0.194
		L109.141,258.166z"/>
	<polygon style="fill:#E12946;" points="99.674,249.92 98.108,249.92 98.119,251.463 99.685,251.471 99.674,252.959 
		101.446,252.959 101.446,251.439 102.969,251.439 103,249.92 101.446,249.92 101.458,248.315 99.674,248.315 	"/>
	<polygon style="fill:#E12946;" points="106.028,286.645 104.465,286.645 104.473,288.188 106.039,288.199 106.028,289.688 
		107.8,289.688 107.8,288.168 109.327,288.168 109.354,286.645 107.8,286.645 107.812,285.044 106.028,285.044 	"/>
	<ellipse style="fill:#E12946;" cx="101.458" cy="299.034" rx="0.948" ry="0.975"/>
	<ellipse style="fill:#E12946;" cx="101.458" cy="304.941" rx="0.948" ry="0.975"/>
	<ellipse style="fill:#E12946;" cx="101.458" cy="311.598" rx="0.948" ry="0.975"/>
	<path style="fill:#A4D8C8;stroke:#A4D8C8;stroke-width:0.087;stroke-miterlimit:10;" d="M144.56,322.126h20.539
		c0,0-0.163-13.24-1.111-25.156c-0.031-0.393-0.144-1.733,0.105-2.04c0.661-0.82,2.526-8.725,6.871,4.772
		c0.334,1.038,1.679,1.442,2.763,1.601c1.589,0.229,3.501-0.342,3.253-4.562c-0.054-0.937-0.272-1.858-0.56-2.751
		c-1.465-4.586-4.302-21.903-19.112-21.903c0,0-0.183,4.384-3.999,10.085l0,0c-3.816-5.701-4.974-9.898-4.974-9.898
		c-14.904,0.303-17.022,17.278-18.479,21.774c-0.291,0.902-0.494,1.83-0.544,2.779c-0.222,4.143,1.675,4.706,3.257,4.477
		c1.088-0.155,2.53-0.536,2.771-1.601c1.986-8.903,4.135-8.177,5.518-6.556c0.785,0.921,1.426,2.701,1.485,3.91l0.074,1.488
		L144.56,322.126z"/>
	<path style="fill:#231F20;stroke:#231F20;stroke-width:0.0461;stroke-miterlimit:10;" d="M165.168,322.126v18.036
		c0,1.667-0.633,3.276-1.795,4.321c-1.018,0.913-2.39,1.376-3.937-0.198c-1.042-1.061-1.624-2.573-1.675-4.147l-0.548-18.013
		L165.168,322.126L165.168,322.126z"/>
	<path style="fill:#231F20;stroke:#231F20;stroke-width:0.0461;stroke-miterlimit:10;" d="M152.561,322.126l-0.548,18.013
		c-0.047,1.574-0.633,3.086-1.675,4.147c-1.543,1.574-2.919,1.111-3.937,0.198c-1.162-1.045-1.795-2.658-1.795-4.321v-18.036
		H152.561L152.561,322.126z"/>
	
		<ellipse style="fill:#F6D19F;stroke:#F6D19F;stroke-width:0.0885;stroke-miterlimit:10;" cx="152.418" cy="262.601" rx="8.95" ry="9.183"/>
	<path style="fill:#7E431C;" d="M160.928,259.756l0.105-4.154c-0.396-4.22-7.127-3.311-7.127-3.311
		c-3.125-2.464-5.678-1.368-7.092-0.284c-0.093,0.07-0.187,0.136-0.284,0.194c-1.823,1.084-3.023,3.233-3.035,5.705
		c-0.004,0.7,0.416,1.85,0.416,1.85l1.302-2.305c0,0,2.421,0.878,3.91-0.47c0,0,5.472,3.016,11.064,1.764L160.928,259.756z"/>
	<path style="fill:#6D6E70;stroke:#231F20;stroke-width:0.0433;stroke-miterlimit:10;" d="M153.976,294.507
		c1.279-2.141-1.349-5.27-1.349-5.27c-10.687-1.461-4.294-16.963-4.294-16.963s-5.091,16.59,5.079,15.63
		c0,0,7.765-0.832,4.057-15.712c0,0,5.281,13.268-3.148,16.664c0,0,1.644,7.287-0.975,7.337L153.976,294.507"/>
	<path style="fill:#231F20;stroke:#231F20;stroke-width:0.0433;stroke-miterlimit:10;" d="M156.047,294.751
		c0.257,1.053-0.33,2.11-1.314,2.363c-0.983,0.253-1.986-0.396-2.246-1.446c-0.257-1.053,0.33-2.11,1.314-2.363
		C154.784,293.053,155.791,293.698,156.047,294.751z"/>
</g>
<g>
	<path style="fill:#FFFFFF;" d="M537.149,256.814c0,0,6.218-13.753,8.557-25.187c0.101-0.494-0.008-1.018-0.33-1.399
		c-0.676-0.801-2.371-1.127-6.502,3.952c-0.715,0.878-1.722,1.485-2.833,1.609c-1.45,0.163-3.097-0.435-3.055-4.034
		c0.012-1.131,0.214-2.246,0.552-3.319c1.434-4.543,5.864-18.988,18.079-22c0,0,1.131,4.24,4.866,10.003l0,0
		c3.735-5.759,3.913-10.19,3.913-10.19c12.214,3.012,17.286,17.647,18.72,22.19c0.338,1.073,0.536,2.192,0.552,3.319
		c0.043,3.603-1.605,4.201-3.055,4.034c-1.111-0.124-2.118-0.731-2.833-1.609c-4.127-5.079-5.825-4.749-6.502-3.952
		c-0.323,0.381-0.431,0.905-0.33,1.399c2.34,11.433,11.845,25.187,11.845,25.187h-10.776v16.217c0,1.496-0.622,2.946-1.757,3.886
		c-0.995,0.82-2.34,1.236-3.851-0.175c-1.018-0.956-1.589-2.312-1.64-3.731l-0.536-16.198h-4.527l-0.536,16.198
		c-0.047,1.415-0.618,2.775-1.64,3.731c-1.512,1.415-2.856,0.999-3.851,0.175c-1.139-0.94-1.757-2.39-1.757-3.886v-16.217h-10.773"
		/>
	<path style="fill:#231F20;stroke:#231F20;stroke-width:0.0433;stroke-miterlimit:10;" d="M567.862,256.814v16.217
		c0,1.496-0.622,2.946-1.757,3.886c-0.995,0.82-2.34,1.236-3.851-0.175c-1.018-0.956-1.589-2.312-1.64-3.731l-0.536-16.198"/>
	<path style="fill:#231F20;stroke:#231F20;stroke-width:0.0433;stroke-miterlimit:10;" d="M555.531,256.814l-0.536,16.198
		c-0.047,1.415-0.618,2.775-1.64,3.731c-1.512,1.415-2.856,0.999-3.851,0.175c-1.139-0.94-1.757-2.39-1.757-3.886v-16.217"/>
	
		<ellipse style="fill:#F6D19F;stroke:#F6D19F;stroke-width:0.0866;stroke-miterlimit:10;" cx="555.617" cy="196.962" rx="8.756" ry="8.985"/>
	<path style="fill:#FFFFFF;" d="M564.372,191.491c-9.043-9.984-16.897-0.513-16.897-0.513l-3.793-7.73c0,0,10.979-5.483,23.29-0.194
		L564.372,191.491z"/>
	<polygon style="fill:#E12946;" points="554.906,183.244 553.339,183.244 553.347,184.787 554.917,184.795 554.906,186.283 
		556.674,186.283 556.674,184.764 558.201,184.764 558.228,183.244 556.674,183.244 556.685,181.639 554.906,181.639 	"/>
	<polygon style="fill:#E12946;" points="561.26,219.973 559.693,219.973 559.705,221.512 561.271,221.523 561.26,223.012 
		563.028,223.012 563.028,221.492 564.555,221.492 564.582,219.973 563.028,219.973 563.043,218.368 561.26,218.368 	"/>
	<ellipse style="fill:#E12946;" cx="556.689" cy="232.358" rx="0.948" ry="0.975"/>
	<ellipse style="fill:#E12946;" cx="556.689" cy="238.269" rx="0.948" ry="0.975"/>
	<ellipse style="fill:#E12946;" cx="556.689" cy="244.922" rx="0.948" ry="0.975"/>
	<path style="fill:#A4D8C8;stroke:#A4D8C8;stroke-width:0.087;stroke-miterlimit:10;" d="M599.791,255.45h20.539
		c0,0-0.163-13.24-1.111-25.155c-0.031-0.393-0.144-1.733,0.105-2.04c0.661-0.82,2.526-8.725,6.871,4.772
		c0.334,1.038,1.679,1.442,2.763,1.601c1.589,0.229,3.502-0.342,3.253-4.562c-0.054-0.937-0.272-1.858-0.56-2.751
		c-1.465-4.586-4.302-21.903-19.112-21.903c0,0-0.183,4.384-3.999,10.085l0,0c-3.816-5.701-4.974-9.898-4.974-9.898
		c-14.904,0.303-17.022,17.278-18.479,21.774c-0.291,0.902-0.494,1.83-0.544,2.779c-0.222,4.143,1.675,4.706,3.257,4.477
		c1.088-0.155,2.53-0.536,2.771-1.601c1.986-8.903,4.135-8.177,5.518-6.556c0.785,0.921,1.426,2.701,1.484,3.91l0.074,1.488
		L599.791,255.45z"/>
	<path style="fill:#231F20;stroke:#231F20;stroke-width:0.0461;stroke-miterlimit:10;" d="M620.396,255.45v18.036
		c0,1.667-0.633,3.276-1.795,4.321c-1.018,0.913-2.39,1.376-3.937-0.198c-1.042-1.061-1.624-2.573-1.675-4.147l-0.548-18.013
		H620.396z"/>
	<path style="fill:#231F20;stroke:#231F20;stroke-width:0.0461;stroke-miterlimit:10;" d="M607.793,255.45l-0.548,18.013
		c-0.047,1.574-0.633,3.086-1.675,4.147c-1.543,1.574-2.919,1.111-3.937,0.198c-1.162-1.045-1.795-2.658-1.795-4.321V255.45
		L607.793,255.45L607.793,255.45z"/>
	
		<ellipse style="fill:#F6D19F;stroke:#F6D19F;stroke-width:0.0885;stroke-miterlimit:10;" cx="607.649" cy="195.925" rx="8.95" ry="9.183"/>
	<path style="fill:#7E431C;" d="M616.16,193.08l0.105-4.154c-0.396-4.22-7.127-3.311-7.127-3.311
		c-3.125-2.464-5.678-1.368-7.092-0.284c-0.093,0.07-0.187,0.136-0.284,0.194c-1.823,1.084-3.023,3.233-3.035,5.705
		c-0.004,0.7,0.416,1.85,0.416,1.85l1.302-2.305c0,0,2.421,0.878,3.91-0.47c0,0,5.472,3.016,11.064,1.764L616.16,193.08z"/>
	<path style="fill:#6D6E70;stroke:#231F20;stroke-width:0.0433;stroke-miterlimit:10;" d="M609.208,227.831
		c1.279-2.141-1.349-5.27-1.349-5.27c-10.687-1.461-4.294-16.963-4.294-16.963s-5.091,16.59,5.079,15.63
		c0,0,7.765-0.832,4.057-15.712c0,0,5.281,13.268-3.148,16.664c0,0,1.644,7.287-0.975,7.337L609.208,227.831"/>
	<path style="fill:#231F20;stroke:#231F20;stroke-width:0.0433;stroke-miterlimit:10;" d="M611.279,228.075
		c0.256,1.053-0.33,2.11-1.314,2.363c-0.983,0.253-1.986-0.396-2.246-1.446c-0.256-1.053,0.33-2.11,1.314-2.363
		C610.016,226.373,611.023,227.022,611.279,228.075z"/>
</g>
<g>
	<path style="fill:#FFFFFF;" d="M455.943,338.829c0,0,5.433-12.012,7.473-21.996c0.089-0.431-0.008-0.89-0.288-1.224
		c-0.591-0.7-2.071-0.987-5.678,3.451c-0.626,0.769-1.504,1.294-2.476,1.407c-1.263,0.144-2.705-0.377-2.666-3.525
		c0.012-0.987,0.187-1.963,0.482-2.899c1.251-3.968,5.122-16.582,15.79-19.213c0,0,0.987,3.704,4.252,8.736l0,0
		c3.261-5.033,3.42-8.899,3.42-8.899c10.668,2.631,15.098,15.413,16.349,19.381c0.295,0.937,0.47,1.916,0.482,2.899
		c0.039,3.144-1.403,3.669-2.666,3.525c-0.968-0.109-1.85-0.637-2.476-1.407c-3.606-4.438-5.087-4.15-5.678-3.451
		c-0.28,0.334-0.377,0.793-0.288,1.224c2.044,9.984,10.345,21.996,10.345,21.996h-9.412v14.165c0,1.31-0.54,2.573-1.535,3.393
		c-0.867,0.719-2.044,1.08-3.362-0.155c-0.89-0.836-1.391-2.021-1.43-3.257l-0.47-14.146h-3.956l-0.47,14.146
		c-0.043,1.236-0.54,2.425-1.43,3.257c-1.317,1.236-2.495,0.87-3.362,0.155c-0.995-0.82-1.535-2.087-1.535-3.393v-14.165h-9.416"/>
	<path style="fill:#231F20;stroke:#231F20;stroke-width:0.0433;stroke-miterlimit:10;" d="M482.77,338.829v14.165
		c0,1.31-0.54,2.573-1.535,3.393c-0.87,0.719-2.044,1.08-3.362-0.155c-0.89-0.836-1.391-2.021-1.43-3.257l-0.47-14.146"/>
	<path style="fill:#231F20;stroke:#231F20;stroke-width:0.0433;stroke-miterlimit:10;" d="M471.997,338.829l-0.47,14.146
		c-0.043,1.236-0.54,2.425-1.43,3.257c-1.317,1.236-2.495,0.871-3.362,0.155c-0.995-0.82-1.535-2.087-1.535-3.393v-14.165"/>
	
		<ellipse style="fill:#F6D19F;stroke:#F6D19F;stroke-width:0.0866;stroke-miterlimit:10;" cx="472.071" cy="286.555" rx="7.648" ry="7.85"/>
	<path style="fill:#FFFFFF;" d="M479.719,281.775c-7.901-8.721-14.756-0.447-14.756-0.447l-3.315-6.75c0,0,9.587-4.788,20.34-0.171
		L479.719,281.775z"/>
	<polygon style="fill:#E12946;" points="471.453,274.574 470.085,274.574 470.093,275.923 471.461,275.93 471.453,277.228 
		472.996,277.228 472.996,275.903 474.333,275.903 474.356,274.574 472.996,274.574 473.007,273.175 471.453,273.175 	"/>
	<polygon style="fill:#E12946;" points="477.002,306.651 475.634,306.651 475.642,307.996 477.01,308.003 477.002,309.305 
		478.549,309.305 478.549,307.976 479.882,307.976 479.905,306.651 478.549,306.651 478.557,305.248 477.002,305.248 	"/>
	<ellipse style="fill:#E12946;" cx="473.011" cy="317.47" rx="0.828" ry="0.851"/>
	<ellipse style="fill:#E12946;" cx="473.011" cy="322.631" rx="0.828" ry="0.851"/>
	<ellipse style="fill:#E12946;" cx="473.011" cy="328.441" rx="0.828" ry="0.851"/>
	<path style="fill:#A4D8C8;stroke:#A4D8C8;stroke-width:0.087;stroke-miterlimit:10;" d="M510.653,337.636h17.935
		c0,0-0.14-11.565-0.972-21.969c-0.027-0.346-0.124-1.512,0.093-1.784c0.575-0.719,2.203-7.621,6,4.17
		c0.292,0.906,1.465,1.259,2.413,1.399c1.387,0.202,3.058-0.295,2.841-3.983c-0.051-0.82-0.237-1.624-0.49-2.406
		c-1.279-4.003-3.758-19.128-16.691-19.128c0,0-0.159,3.828-3.494,8.806l0,0c-3.334-4.978-4.345-8.643-4.345-8.643
		c-13.015,0.264-14.865,15.09-16.139,19.019c-0.256,0.789-0.431,1.597-0.474,2.425c-0.194,3.618,1.461,4.112,2.841,3.913
		c0.948-0.136,2.211-0.47,2.417-1.399c1.733-7.776,3.61-7.139,4.823-5.724c0.688,0.804,1.247,2.359,1.298,3.412l0.062,1.298
		L510.653,337.636z"/>
	<path style="fill:#231F20;stroke:#231F20;stroke-width:0.0461;stroke-miterlimit:10;" d="M528.65,337.636v15.751
		c0,1.453-0.552,2.864-1.57,3.774c-0.886,0.797-2.091,1.201-3.435-0.171c-0.909-0.929-1.419-2.246-1.461-3.622l-0.478-15.731
		L528.65,337.636L528.65,337.636z"/>
	<path style="fill:#231F20;stroke:#231F20;stroke-width:0.0461;stroke-miterlimit:10;" d="M517.641,337.636l-0.478,15.731
		c-0.043,1.376-0.552,2.697-1.461,3.622c-1.349,1.372-2.549,0.968-3.435,0.171c-1.014-0.913-1.57-2.32-1.57-3.774v-15.751
		L517.641,337.636L517.641,337.636z"/>
	
		<ellipse style="fill:#F6D19F;stroke:#F6D19F;stroke-width:0.0885;stroke-miterlimit:10;" cx="517.516" cy="285.65" rx="7.815" ry="8.021"/>
	<path style="fill:#7E431C;" d="M524.951,283.163l0.089-3.626c-0.346-3.688-6.222-2.891-6.222-2.891
		c-2.732-2.153-4.959-1.197-6.195-0.249c-0.082,0.062-0.163,0.117-0.249,0.167c-1.593,0.944-2.643,2.825-2.65,4.982
		c-0.004,0.61,0.361,1.617,0.361,1.617l1.139-2.013c0,0,2.114,0.766,3.416-0.408c0,0,4.78,2.635,9.661,1.539L524.951,283.163z"/>
	<path style="fill:#6D6E70;stroke:#231F20;stroke-width:0.0433;stroke-miterlimit:10;" d="M518.876,313.514
		c1.119-1.869-1.177-4.601-1.177-4.601c-9.335-1.279-3.75-14.814-3.75-14.814s-4.446,14.488,4.434,13.652
		c0,0,6.781-0.727,3.544-13.722c0,0,4.613,11.585-2.748,14.554c0,0,1.434,6.366-0.851,6.408L518.876,313.514"/>
	<path style="fill:#231F20;stroke:#231F20;stroke-width:0.0433;stroke-miterlimit:10;" d="M520.687,313.728
		c0.225,0.917-0.288,1.842-1.146,2.064c-0.859,0.222-1.737-0.346-1.959-1.263c-0.225-0.917,0.288-1.842,1.146-2.064
		C519.584,312.243,520.462,312.811,520.687,313.728z"/>
</g>
</svg>
