<?xml version="1.0" encoding="iso-8859-1"?>
<!-- Generator: Adobe Illustrator 18.1.1, SVG Export Plug-In . SVG Version: 6.00 Build 0)  -->
<svg version="1.1" id="Layer_1" xmlns="http://www.w3.org/2000/svg" xmlns:xlink="http://www.w3.org/1999/xlink" x="0px" y="0px"
	 viewBox="0 0 203.797 116.463" style="enable-background:new 0 0 203.797 116.463;" xml:space="preserve">
<path style="fill:#A2FFFD;" d="M1.169,17.519l3.711,17.35l-1.1,8.064l1.641,3.928l8.625,18.117c0,0,43.84,19.948,45.481,23.876
	c1.641,3.928,8.964,25.613,8.964,25.613l1.938-11.109l5.73-2.776l3.557-7.68l21.617-7.538c0,0,9.931-6.982,11.415-6.552
	c1.483,0.43,15.964,7.753,15.964,7.753l2.752,4.147c0.713,1.074,2.236,1.133,3.025,0.116l0.742-0.956
	c0.552-0.712,0.679-1.677,0.329-2.514l-2.715-6.498l5.878-10.295l13.287-3.217c1.419-0.343,2.739-1.024,3.855-1.987l2.718-2.346
	c2.293-1.979,3.766-4.778,4.121-7.831l1.556-13.376l27.969-7.339l3.51,0.725c1.527,0.316,3.084-0.358,3.92-1.707
	c2.017-3.253,5.081-9.583,2.877-15.365c-0.578-1.518-2.251-2.27-3.732-1.683l-17.701,7.005c-1.016,0.402-2.108,0.562-3.193,0.468
	l-16.966-1.475l-10.757-0.49l-11.004,2.348c-0.666,0.142-1.207,0.64-1.416,1.305l-0.942,2.992l-7.349-0.652l-0.848-7.972
	c0,0,0.916-9.368,0.919-12.062c0.002-1.753-10.225,0.486-10.225,0.486l-0.758-5.973L11.623,0.498L4.171,8.363L0.559,4.028
	L1.169,17.519z"/>
<g>
	<path style="fill:#FFFFFF;" d="M10.178,33.587c0,0,2.367-5.235,3.257-9.586c0.038-0.188-0.003-0.388-0.126-0.533
		c-0.257-0.304-0.903-0.429-2.474,1.504c-0.272,0.335-0.656,0.565-1.078,0.613c-0.551,0.062-1.179-0.165-1.162-1.536
		c0.005-0.43,0.081-0.855,0.21-1.264c0.545-1.729,2.231-7.227,6.88-8.373c0,0,0.43,1.614,1.852,3.807l0,0
		c1.422-2.192,1.49-3.878,1.49-3.878c4.649,1.147,6.579,6.716,7.124,8.445c0.129,0.409,0.205,0.834,0.21,1.264
		c0.016,1.371-0.611,1.598-1.162,1.536c-0.422-0.048-0.806-0.278-1.078-0.613c-1.571-1.933-2.217-1.808-2.474-1.504
		c-0.122,0.145-0.164,0.345-0.126,0.533c0.89,4.351,4.508,9.586,4.508,9.586h-4.102v6.172c0,0.57-0.236,1.122-0.669,1.479
		c-0.378,0.313-0.891,0.471-1.465-0.067c-0.388-0.363-0.606-0.881-0.623-1.42l-0.204-6.165h-1.723l-0.204,6.165
		c-0.018,0.539-0.235,1.056-0.623,1.42c-0.575,0.538-1.087,0.38-1.465,0.067c-0.433-0.357-0.669-0.909-0.669-1.479v-6.172H10.178"/>
	<path style="fill:#231F20;stroke:#231F20;stroke-width:0.0433;stroke-miterlimit:10;" d="M21.867,33.587v6.172
		c0,0.57-0.236,1.122-0.669,1.479c-0.378,0.313-0.891,0.471-1.465-0.067c-0.388-0.363-0.606-0.881-0.623-1.42l-0.204-6.165"/>
	<path style="fill:#231F20;stroke:#231F20;stroke-width:0.0433;stroke-miterlimit:10;" d="M17.173,33.587l-0.204,6.165
		c-0.018,0.539-0.235,1.056-0.623,1.42c-0.575,0.538-1.087,0.38-1.465,0.067c-0.433-0.357-0.669-0.909-0.669-1.479v-6.172"/>
	
		<ellipse style="fill:#F6D19F;stroke:#F6D19F;stroke-width:0.0866;stroke-miterlimit:10;" cx="17.206" cy="10.809" rx="3.332" ry="3.42"/>
	<path style="fill:#FFFFFF;" d="M20.538,8.727c-3.442-3.8-6.43-0.195-6.43-0.195L12.664,5.59c0,0,4.178-2.086,8.864-0.074
		L20.538,8.727z"/>
	<polygon style="fill:#E12946;" points="16.936,5.588 16.34,5.588 16.344,6.175 16.94,6.179 16.936,6.745 17.609,6.745 
		17.609,6.167 18.19,6.167 18.201,5.588 17.609,5.588 17.614,4.978 16.936,4.978 	"/>
	<polygon style="fill:#E12946;" points="19.354,19.566 18.758,19.566 18.762,20.152 19.359,20.156 19.354,20.723 20.028,20.723 
		20.028,20.144 20.609,20.144 20.619,19.566 20.028,19.566 20.032,18.955 19.354,18.955 	"/>
	<ellipse style="fill:#E12946;" cx="17.615" cy="24.281" rx="0.361" ry="0.371"/>
	<ellipse style="fill:#E12946;" cx="17.615" cy="26.529" rx="0.361" ry="0.371"/>
	<ellipse style="fill:#E12946;" cx="17.615" cy="29.061" rx="0.361" ry="0.371"/>
	<path style="fill:#A4D8C8;stroke:#A4D8C8;stroke-width:0.087;stroke-miterlimit:10;" d="M34.018,33.068h7.816
		c0,0-0.062-5.04-0.423-9.574c-0.012-0.15-0.054-0.659,0.04-0.777c0.251-0.313,0.961-3.32,2.615,1.817
		c0.127,0.395,0.639,0.549,1.052,0.609c0.605,0.088,1.333-0.13,1.238-1.736c-0.021-0.356-0.104-0.707-0.213-1.047
		c-0.557-1.745-1.637-8.336-7.274-8.336c0,0-0.07,1.668-1.522,3.837l0,0c-1.453-2.169-1.893-3.767-1.893-3.767
		c-5.672,0.116-6.477,6.576-7.032,8.287c-0.111,0.344-0.188,0.696-0.207,1.057c-0.084,1.577,0.638,1.791,1.239,1.705
		c0.414-0.06,0.963-0.204,1.054-0.61c0.756-3.388,1.573-3.111,2.101-2.495c0.299,0.35,0.543,1.028,0.565,1.487l0.028,0.566
		L34.018,33.068z"/>
	<path style="fill:#231F20;stroke:#231F20;stroke-width:0.0461;stroke-miterlimit:10;" d="M41.861,33.068v6.864
		c0,0.634-0.241,1.247-0.683,1.645c-0.387,0.348-0.91,0.524-1.498-0.075c-0.397-0.404-0.619-0.979-0.637-1.579l-0.209-6.855H41.861z
		"/>
	<path style="fill:#231F20;stroke:#231F20;stroke-width:0.0461;stroke-miterlimit:10;" d="M37.063,33.068l-0.209,6.855
		c-0.018,0.599-0.241,1.175-0.637,1.579c-0.587,0.598-1.111,0.422-1.498,0.075c-0.442-0.397-0.683-1.011-0.683-1.645v-6.864H37.063z
		"/>
	
		<ellipse style="fill:#F6D19F;stroke:#F6D19F;stroke-width:0.0885;stroke-miterlimit:10;" cx="37.009" cy="10.414" rx="3.406" ry="3.495"/>
	<path style="fill:#7E431C;" d="M40.248,9.331l0.039-1.58c-0.15-1.607-2.712-1.259-2.712-1.259c-1.19-0.938-2.161-0.521-2.699-0.108
		c-0.035,0.027-0.071,0.051-0.108,0.073c-0.694,0.412-1.151,1.231-1.155,2.171c-0.001,0.267,0.158,0.704,0.158,0.704l0.496-0.876
		c0,0,0.921,0.334,1.488-0.178c0,0,2.083,1.148,4.21,0.671L40.248,9.331z"/>
	<path style="fill:#6D6E70;stroke:#231F20;stroke-width:0.0433;stroke-miterlimit:10;" d="M37.602,22.557
		c0.487-0.815-0.513-2.005-0.513-2.005c-4.067-0.557-1.635-6.455-1.635-6.455s-1.938,6.313,1.933,5.949c0,0,2.955-0.316,1.545-5.979
		c0,0,2.009,5.049-1.198,6.342c0,0,0.626,2.773-0.372,2.793L37.602,22.557"/>
	<path style="fill:#231F20;stroke:#231F20;stroke-width:0.0433;stroke-miterlimit:10;" d="M38.39,22.65
		c0.098,0.4-0.126,0.803-0.5,0.899c-0.374,0.096-0.756-0.15-0.854-0.55s0.126-0.803,0.5-0.899
		C37.91,22.003,38.292,22.249,38.39,22.65z"/>
</g>
<g>
	<path style="fill:#FFFFFF;" d="M52.553,33.52c0,0,2.367-5.235,3.257-9.586c0.038-0.188-0.003-0.388-0.126-0.533
		c-0.257-0.304-0.903-0.429-2.474,1.504c-0.272,0.335-0.656,0.565-1.078,0.613c-0.551,0.062-1.179-0.165-1.162-1.536
		c0.005-0.43,0.081-0.855,0.21-1.264c0.545-1.729,2.231-7.227,6.88-8.373c0,0,0.43,1.614,1.852,3.807l0,0
		c1.422-2.192,1.49-3.878,1.49-3.878c4.649,1.147,6.579,6.716,7.124,8.445c0.129,0.409,0.205,0.834,0.21,1.264
		c0.016,1.371-0.611,1.598-1.162,1.536c-0.422-0.048-0.806-0.278-1.078-0.613c-1.571-1.933-2.217-1.808-2.474-1.504
		c-0.122,0.145-0.164,0.345-0.126,0.533c0.89,4.351,4.508,9.586,4.508,9.586h-4.102v6.172c0,0.57-0.236,1.122-0.669,1.479
		c-0.378,0.313-0.891,0.471-1.465-0.067c-0.388-0.363-0.606-0.881-0.623-1.42L61.34,33.52h-1.723l-0.204,6.165
		c-0.018,0.539-0.235,1.056-0.623,1.42c-0.575,0.538-1.087,0.38-1.465,0.067c-0.433-0.357-0.669-0.909-0.669-1.479V33.52H52.553"/>
	<path style="fill:#231F20;stroke:#231F20;stroke-width:0.0433;stroke-miterlimit:10;" d="M64.242,33.52v6.172
		c0,0.57-0.236,1.122-0.669,1.479c-0.378,0.313-0.891,0.471-1.465-0.067c-0.388-0.363-0.606-0.881-0.623-1.42L61.28,33.52"/>
	<path style="fill:#231F20;stroke:#231F20;stroke-width:0.0433;stroke-miterlimit:10;" d="M59.548,33.52l-0.204,6.165
		c-0.018,0.539-0.235,1.056-0.623,1.42c-0.575,0.538-1.087,0.38-1.465,0.067c-0.433-0.357-0.669-0.909-0.669-1.479V33.52"/>
	
		<ellipse style="fill:#F6D19F;stroke:#F6D19F;stroke-width:0.0866;stroke-miterlimit:10;" cx="59.581" cy="10.743" rx="3.332" ry="3.42"/>
	<path style="fill:#FFFFFF;" d="M62.913,8.66c-3.442-3.8-6.43-0.195-6.43-0.195l-1.444-2.941c0,0,4.178-2.086,8.864-0.074
		L62.913,8.66z"/>
	<polygon style="fill:#E12946;" points="59.311,5.522 58.715,5.522 58.719,6.108 59.315,6.112 59.311,6.679 59.984,6.679 
		59.984,6.1 60.565,6.1 60.576,5.522 59.984,5.522 59.989,4.911 59.311,4.911 	"/>
	<polygon style="fill:#E12946;" points="61.729,19.499 61.133,19.499 61.137,20.086 61.734,20.089 61.729,20.656 62.403,20.656 
		62.403,20.077 62.984,20.077 62.994,19.499 62.403,19.499 62.407,18.888 61.729,18.888 	"/>
	<ellipse style="fill:#E12946;" cx="59.99" cy="24.214" rx="0.361" ry="0.371"/>
	<ellipse style="fill:#E12946;" cx="59.99" cy="26.462" rx="0.361" ry="0.371"/>
	<ellipse style="fill:#E12946;" cx="59.99" cy="28.995" rx="0.361" ry="0.371"/>
	<path style="fill:#A4D8C8;stroke:#A4D8C8;stroke-width:0.087;stroke-miterlimit:10;" d="M76.393,33.001h7.816
		c0,0-0.062-5.04-0.423-9.574c-0.012-0.15-0.054-0.659,0.04-0.777c0.251-0.313,0.961-3.32,2.615,1.817
		c0.127,0.395,0.639,0.549,1.052,0.609c0.605,0.088,1.333-0.13,1.238-1.736c-0.021-0.356-0.104-0.707-0.213-1.047
		c-0.557-1.745-1.637-8.336-7.274-8.336c0,0-0.07,1.668-1.522,3.837l0,0c-1.453-2.169-1.893-3.767-1.893-3.767
		c-5.672,0.116-6.477,6.576-7.032,8.287c-0.111,0.344-0.188,0.696-0.207,1.057c-0.084,1.577,0.638,1.791,1.239,1.705
		c0.414-0.06,0.963-0.204,1.054-0.61c0.756-3.388,1.573-3.111,2.101-2.495c0.299,0.35,0.543,1.028,0.565,1.487l0.028,0.566
		L76.393,33.001z"/>
	<path style="fill:#231F20;stroke:#231F20;stroke-width:0.0461;stroke-miterlimit:10;" d="M84.236,33.001v6.864
		c0,0.634-0.241,1.247-0.683,1.645c-0.387,0.348-0.91,0.524-1.498-0.075c-0.397-0.404-0.619-0.979-0.637-1.579l-0.209-6.855H84.236z
		"/>
	<path style="fill:#231F20;stroke:#231F20;stroke-width:0.0461;stroke-miterlimit:10;" d="M79.438,33.001l-0.209,6.855
		c-0.018,0.599-0.241,1.175-0.637,1.579c-0.587,0.598-1.111,0.422-1.498,0.075c-0.442-0.397-0.683-1.011-0.683-1.645v-6.864H79.438z
		"/>
	
		<ellipse style="fill:#F6D19F;stroke:#F6D19F;stroke-width:0.0885;stroke-miterlimit:10;" cx="79.384" cy="10.347" rx="3.406" ry="3.495"/>
	<path style="fill:#7E431C;" d="M82.623,9.264l0.039-1.58c-0.15-1.607-2.712-1.259-2.712-1.259c-1.19-0.938-2.161-0.521-2.699-0.108
		c-0.035,0.027-0.071,0.051-0.108,0.073c-0.694,0.412-1.151,1.231-1.155,2.171c-0.001,0.267,0.158,0.704,0.158,0.704l0.496-0.876
		c0,0,0.921,0.334,1.488-0.178c0,0,2.083,1.148,4.21,0.671L82.623,9.264z"/>
	<path style="fill:#6D6E70;stroke:#231F20;stroke-width:0.0433;stroke-miterlimit:10;" d="M79.977,22.49
		c0.487-0.815-0.513-2.005-0.513-2.005c-4.067-0.557-1.635-6.455-1.635-6.455s-1.938,6.313,1.933,5.949c0,0,2.955-0.316,1.545-5.979
		c0,0,2.009,5.049-1.198,6.342c0,0,0.626,2.773-0.372,2.793L79.977,22.49"/>
	<path style="fill:#231F20;stroke:#231F20;stroke-width:0.0433;stroke-miterlimit:10;" d="M80.765,22.583
		c0.098,0.4-0.126,0.803-0.5,0.899s-0.756-0.15-0.854-0.55c-0.098-0.4,0.126-0.803,0.5-0.899
		C80.285,21.936,80.667,22.183,80.765,22.583z"/>
</g>
<g>
	<path style="fill:#FFFFFF;" d="M91.678,39.752c0,0,2.367-5.235,3.257-9.586c0.038-0.188-0.003-0.388-0.126-0.533
		c-0.257-0.304-0.903-0.429-2.474,1.504c-0.272,0.335-0.656,0.565-1.078,0.613c-0.551,0.062-1.179-0.165-1.162-1.536
		c0.005-0.43,0.081-0.855,0.21-1.264c0.545-1.729,2.231-7.227,6.88-8.373c0,0,0.43,1.614,1.852,3.807l0,0
		c1.422-2.192,1.49-3.878,1.49-3.878c4.649,1.147,6.579,6.716,7.124,8.445c0.129,0.409,0.205,0.834,0.21,1.264
		c0.016,1.371-0.611,1.598-1.162,1.536c-0.422-0.048-0.806-0.278-1.078-0.613c-1.571-1.933-2.217-1.808-2.474-1.504
		c-0.122,0.145-0.164,0.345-0.126,0.533c0.89,4.351,4.508,9.586,4.508,9.586h-4.102v6.172c0,0.57-0.236,1.122-0.669,1.479
		c-0.378,0.313-0.891,0.471-1.465-0.067c-0.388-0.363-0.606-0.881-0.623-1.42l-0.204-6.165h-1.723l-0.204,6.165
		c-0.018,0.539-0.235,1.056-0.623,1.42c-0.575,0.538-1.087,0.38-1.465,0.067c-0.433-0.357-0.669-0.909-0.669-1.479v-6.172H91.678"/>
	<path style="fill:#231F20;stroke:#231F20;stroke-width:0.0433;stroke-miterlimit:10;" d="M103.367,39.752v6.172
		c0,0.57-0.236,1.122-0.669,1.479c-0.378,0.313-0.891,0.471-1.465-0.067c-0.388-0.363-0.606-0.881-0.623-1.42l-0.204-6.165"/>
	<path style="fill:#231F20;stroke:#231F20;stroke-width:0.0433;stroke-miterlimit:10;" d="M98.673,39.752l-0.204,6.165
		c-0.018,0.539-0.235,1.056-0.623,1.42c-0.575,0.538-1.087,0.38-1.465,0.067c-0.433-0.357-0.669-0.909-0.669-1.479v-6.172"/>
	
		<ellipse style="fill:#F6D19F;stroke:#F6D19F;stroke-width:0.0866;stroke-miterlimit:10;" cx="98.706" cy="16.974" rx="3.332" ry="3.42"/>
	<path style="fill:#FFFFFF;" d="M102.038,14.891c-3.442-3.8-6.43-0.195-6.43-0.195l-1.444-2.941c0,0,4.178-2.086,8.864-0.074
		L102.038,14.891z"/>
	<polygon style="fill:#E12946;" points="98.436,11.753 97.84,11.753 97.844,12.34 98.44,12.343 98.436,12.91 99.109,12.91 
		99.109,12.331 99.69,12.331 99.701,11.753 99.109,11.753 99.114,11.142 98.436,11.142 	"/>
	<polygon style="fill:#E12946;" points="100.854,25.73 100.258,25.73 100.262,26.317 100.859,26.32 100.854,26.887 101.528,26.887 
		101.528,26.309 102.109,26.309 102.119,25.73 101.528,25.73 101.532,25.12 100.854,25.12 	"/>
	<ellipse style="fill:#E12946;" cx="99.115" cy="30.445" rx="0.361" ry="0.371"/>
	<ellipse style="fill:#E12946;" cx="99.115" cy="32.693" rx="0.361" ry="0.371"/>
	<ellipse style="fill:#E12946;" cx="99.115" cy="35.226" rx="0.361" ry="0.371"/>
	<path style="fill:#A4D8C8;stroke:#A4D8C8;stroke-width:0.087;stroke-miterlimit:10;" d="M115.518,39.232h7.816
		c0,0-0.062-5.04-0.423-9.574c-0.012-0.15-0.054-0.659,0.04-0.777c0.251-0.313,0.961-3.32,2.615,1.817
		c0.127,0.395,0.639,0.549,1.052,0.609c0.605,0.088,1.333-0.13,1.238-1.736c-0.021-0.356-0.104-0.707-0.213-1.047
		c-0.557-1.745-1.637-8.336-7.274-8.336c0,0-0.07,1.668-1.522,3.837l0,0c-1.453-2.169-1.893-3.767-1.893-3.767
		c-5.672,0.116-6.477,6.576-7.032,8.287c-0.111,0.344-0.188,0.696-0.207,1.057c-0.084,1.577,0.638,1.791,1.239,1.705
		c0.414-0.06,0.963-0.204,1.054-0.61c0.756-3.388,1.573-3.111,2.101-2.495c0.299,0.35,0.543,1.028,0.565,1.487l0.028,0.566
		L115.518,39.232z"/>
	<path style="fill:#231F20;stroke:#231F20;stroke-width:0.0461;stroke-miterlimit:10;" d="M123.361,39.232v6.864
		c0,0.634-0.241,1.247-0.683,1.645c-0.387,0.348-0.91,0.524-1.498-0.075c-0.397-0.404-0.619-0.979-0.637-1.579l-0.209-6.855H123.361
		z"/>
	<path style="fill:#231F20;stroke:#231F20;stroke-width:0.0461;stroke-miterlimit:10;" d="M118.563,39.232l-0.209,6.855
		c-0.018,0.599-0.241,1.175-0.637,1.579c-0.587,0.598-1.111,0.422-1.498,0.075c-0.442-0.397-0.683-1.011-0.683-1.645v-6.864H118.563
		z"/>
	
		<ellipse style="fill:#F6D19F;stroke:#F6D19F;stroke-width:0.0885;stroke-miterlimit:10;" cx="118.509" cy="16.579" rx="3.406" ry="3.495"/>
	<path style="fill:#7E431C;" d="M121.748,15.496l0.039-1.58c-0.15-1.607-2.712-1.259-2.712-1.259
		c-1.19-0.938-2.161-0.521-2.699-0.108c-0.035,0.027-0.071,0.051-0.108,0.073c-0.694,0.412-1.151,1.231-1.155,2.171
		c-0.001,0.267,0.158,0.704,0.158,0.704l0.496-0.876c0,0,0.921,0.334,1.488-0.178c0,0,2.083,1.148,4.21,0.671L121.748,15.496z"/>
	<path style="fill:#6D6E70;stroke:#231F20;stroke-width:0.0433;stroke-miterlimit:10;" d="M119.102,28.722
		c0.487-0.815-0.513-2.005-0.513-2.005c-4.067-0.557-1.635-6.455-1.635-6.455s-1.938,6.313,1.933,5.949c0,0,2.955-0.316,1.545-5.979
		c0,0,2.009,5.049-1.198,6.342c0,0,0.626,2.773-0.372,2.793L119.102,28.722"/>
	<path style="fill:#231F20;stroke:#231F20;stroke-width:0.0433;stroke-miterlimit:10;" d="M119.89,28.814
		c0.098,0.4-0.126,0.803-0.5,0.899s-0.756-0.15-0.854-0.55c-0.098-0.4,0.126-0.803,0.5-0.899
		C119.41,28.167,119.792,28.414,119.89,28.814z"/>
</g>
<g>
	<path style="fill:#FFFFFF;" d="M83.906,70.999c0,0,1.906-4.216,2.623-7.72c0.031-0.151-0.003-0.312-0.101-0.429
		c-0.207-0.245-0.727-0.346-1.992,1.211c-0.219,0.27-0.528,0.455-0.868,0.493c-0.444,0.05-0.949-0.133-0.936-1.237
		c0.004-0.346,0.065-0.688,0.169-1.018c0.439-1.393,1.797-5.82,5.541-6.743c0,0,0.347,1.3,1.491,3.066l0,0
		c1.145-1.766,1.2-3.123,1.2-3.123c3.744,0.923,5.298,5.408,5.737,6.801c0.104,0.329,0.165,0.672,0.169,1.018
		c0.013,1.104-0.492,1.287-0.936,1.237c-0.34-0.039-0.649-0.224-0.868-0.493c-1.265-1.557-1.785-1.456-1.992-1.211
		c-0.099,0.117-0.132,0.278-0.101,0.429c0.717,3.504,3.631,7.72,3.631,7.72h-3.303v4.971c0,0.459-0.19,0.903-0.539,1.191
		c-0.305,0.252-0.717,0.379-1.18-0.054c-0.313-0.293-0.488-0.709-0.502-1.143l-0.165-4.965h-1.388l-0.165,4.965
		c-0.014,0.434-0.19,0.851-0.502,1.143c-0.463,0.433-0.875,0.306-1.18,0.054c-0.348-0.288-0.539-0.732-0.539-1.191v-4.971H83.906"/>
	<path style="fill:#231F20;stroke:#231F20;stroke-width:0.0433;stroke-miterlimit:10;" d="M93.32,70.999v4.971
		c0,0.459-0.19,0.903-0.539,1.191c-0.305,0.252-0.717,0.379-1.18-0.054c-0.313-0.293-0.488-0.709-0.502-1.143l-0.165-4.965"/>
	<path style="fill:#231F20;stroke:#231F20;stroke-width:0.0433;stroke-miterlimit:10;" d="M89.539,70.999l-0.165,4.965
		c-0.014,0.434-0.19,0.851-0.502,1.143c-0.463,0.433-0.875,0.306-1.18,0.054c-0.348-0.288-0.539-0.732-0.539-1.191v-4.971"/>
	
		<ellipse style="fill:#F6D19F;stroke:#F6D19F;stroke-width:0.0866;stroke-miterlimit:10;" cx="89.566" cy="52.655" rx="2.684" ry="2.754"/>
	<path style="fill:#FFFFFF;" d="M92.25,50.978c-2.772-3.06-5.179-0.157-5.179-0.157l-1.163-2.369c0,0,3.365-1.68,7.139-0.06
		L92.25,50.978z"/>
	<polygon style="fill:#E12946;" points="89.348,48.45 88.868,48.45 88.871,48.923 89.352,48.926 89.348,49.382 89.89,49.382 
		89.89,48.916 90.358,48.916 90.367,48.45 89.89,48.45 89.894,47.959 89.348,47.959 	"/>
	<polygon style="fill:#E12946;" points="91.296,59.707 90.816,59.707 90.819,60.179 91.299,60.182 91.296,60.639 91.838,60.639 
		91.838,60.173 92.306,60.173 92.315,59.707 91.838,59.707 91.842,59.215 91.296,59.215 	"/>
	<ellipse style="fill:#E12946;" cx="89.895" cy="63.504" rx="0.291" ry="0.299"/>
	<ellipse style="fill:#E12946;" cx="89.895" cy="65.315" rx="0.291" ry="0.299"/>
	<ellipse style="fill:#E12946;" cx="89.895" cy="67.354" rx="0.291" ry="0.299"/>
	<path style="fill:#A4D8C8;stroke:#A4D8C8;stroke-width:0.087;stroke-miterlimit:10;" d="M103.106,70.581h6.295
		c0,0-0.05-4.059-0.34-7.71c-0.01-0.121-0.044-0.531,0.032-0.626c0.202-0.252,0.774-2.674,2.106,1.463
		c0.102,0.318,0.515,0.442,0.847,0.49c0.487,0.071,1.074-0.104,0.997-1.398c-0.017-0.287-0.084-0.569-0.171-0.844
		c-0.449-1.405-1.318-6.713-5.858-6.713c0,0-0.056,1.343-1.226,3.09l0,0c-1.17-1.747-1.524-3.034-1.524-3.034
		c-4.568,0.093-5.217,5.296-5.663,6.674c-0.09,0.277-0.151,0.561-0.167,0.851c-0.068,1.27,0.513,1.443,0.998,1.373
		c0.333-0.048,0.776-0.165,0.849-0.491c0.609-2.729,1.267-2.506,1.692-2.009c0.241,0.282,0.437,0.828,0.455,1.198l0.022,0.456
		L103.106,70.581z"/>
	<path style="fill:#231F20;stroke:#231F20;stroke-width:0.0461;stroke-miterlimit:10;" d="M109.421,70.581v5.528
		c0,0.51-0.194,1.005-0.55,1.325c-0.312,0.28-0.733,0.422-1.206-0.06c-0.319-0.325-0.498-0.789-0.513-1.271l-0.168-5.521H109.421z"
		/>
	<path style="fill:#231F20;stroke:#231F20;stroke-width:0.0461;stroke-miterlimit:10;" d="M105.558,70.581l-0.168,5.521
		c-0.015,0.483-0.194,0.946-0.513,1.271c-0.473,0.482-0.895,0.34-1.206,0.06c-0.356-0.32-0.55-0.814-0.55-1.325v-5.528H105.558z"/>
	
		<ellipse style="fill:#F6D19F;stroke:#F6D19F;stroke-width:0.0885;stroke-miterlimit:10;" cx="105.514" cy="52.337" rx="2.743" ry="2.815"/>
	<path style="fill:#7E431C;" d="M108.123,51.465l0.032-1.273c-0.121-1.294-2.184-1.014-2.184-1.014
		c-0.958-0.755-1.74-0.42-2.174-0.087c-0.028,0.022-0.057,0.041-0.087,0.059c-0.559,0.332-0.927,0.991-0.93,1.749
		c-0.001,0.215,0.127,0.567,0.127,0.567l0.399-0.706c0,0,0.742,0.269,1.198-0.144c0,0,1.678,0.925,3.391,0.54L108.123,51.465z"/>
	<path style="fill:#6D6E70;stroke:#231F20;stroke-width:0.0433;stroke-miterlimit:10;" d="M105.992,62.116
		c0.392-0.656-0.413-1.615-0.413-1.615c-3.276-0.448-1.316-5.199-1.316-5.199s-1.561,5.085,1.557,4.791c0,0,2.38-0.255,1.244-4.816
		c0,0,1.618,4.066-0.965,5.108c0,0,0.504,2.233-0.299,2.249L105.992,62.116"/>
	<path style="fill:#231F20;stroke:#231F20;stroke-width:0.0433;stroke-miterlimit:10;" d="M106.627,62.191
		c0.079,0.322-0.101,0.647-0.402,0.724c-0.301,0.078-0.609-0.121-0.688-0.443s0.101-0.647,0.402-0.724
		C106.24,61.67,106.548,61.868,106.627,62.191z"/>
</g>
<g>
	<path style="fill:#FFFFFF;" d="M48.979,70.946c0,0,1.906-4.216,2.623-7.72c0.031-0.151-0.003-0.312-0.101-0.429
		c-0.207-0.245-0.727-0.346-1.992,1.211c-0.219,0.27-0.528,0.455-0.868,0.493c-0.444,0.05-0.949-0.133-0.936-1.237
		c0.004-0.346,0.065-0.688,0.169-1.018c0.439-1.393,1.797-5.82,5.541-6.743c0,0,0.347,1.3,1.491,3.066l0,0
		c1.145-1.766,1.2-3.123,1.2-3.123c3.744,0.923,5.298,5.408,5.737,6.801c0.104,0.329,0.165,0.672,0.169,1.018
		c0.013,1.104-0.492,1.287-0.936,1.237c-0.34-0.039-0.649-0.224-0.868-0.493c-1.265-1.557-1.785-1.456-1.992-1.211
		c-0.099,0.117-0.132,0.278-0.101,0.429c0.717,3.504,3.631,7.72,3.631,7.72h-3.303v4.971c0,0.459-0.19,0.903-0.539,1.191
		c-0.305,0.252-0.717,0.379-1.18-0.054c-0.313-0.293-0.488-0.709-0.502-1.143l-0.165-4.965h-1.388l-0.165,4.965
		c-0.014,0.434-0.19,0.851-0.502,1.143c-0.463,0.433-0.875,0.306-1.18,0.054c-0.348-0.288-0.539-0.732-0.539-1.191v-4.971H48.979"/>
	<path style="fill:#231F20;stroke:#231F20;stroke-width:0.0433;stroke-miterlimit:10;" d="M58.393,70.946v4.971
		c0,0.459-0.19,0.903-0.539,1.191c-0.305,0.252-0.717,0.379-1.18-0.054c-0.313-0.293-0.488-0.709-0.502-1.143l-0.165-4.965"/>
	<path style="fill:#231F20;stroke:#231F20;stroke-width:0.0433;stroke-miterlimit:10;" d="M54.613,70.946l-0.165,4.965
		c-0.014,0.434-0.19,0.851-0.502,1.143c-0.463,0.433-0.875,0.306-1.18,0.054c-0.348-0.288-0.539-0.732-0.539-1.191v-4.971"/>
	
		<ellipse style="fill:#F6D19F;stroke:#F6D19F;stroke-width:0.0866;stroke-miterlimit:10;" cx="54.639" cy="52.601" rx="2.684" ry="2.754"/>
	<path style="fill:#FFFFFF;" d="M57.323,50.924c-2.772-3.06-5.179-0.157-5.179-0.157l-1.163-2.369c0,0,3.365-1.68,7.139-0.06
		L57.323,50.924z"/>
	<polygon style="fill:#E12946;" points="54.422,48.397 53.942,48.397 53.945,48.869 54.425,48.872 54.422,49.328 54.964,49.328 
		54.964,48.862 55.432,48.862 55.44,48.397 54.964,48.397 54.968,47.905 54.422,47.905 	"/>
	<polygon style="fill:#E12946;" points="56.369,59.653 55.889,59.653 55.892,60.126 56.373,60.129 56.369,60.585 56.912,60.585 
		56.912,60.119 57.38,60.119 57.388,59.653 56.912,59.653 56.915,59.161 56.369,59.161 	"/>
	<ellipse style="fill:#E12946;" cx="54.968" cy="63.45" rx="0.291" ry="0.299"/>
	<ellipse style="fill:#E12946;" cx="54.968" cy="65.261" rx="0.291" ry="0.299"/>
	<ellipse style="fill:#E12946;" cx="54.968" cy="67.301" rx="0.291" ry="0.299"/>
	<path style="fill:#A4D8C8;stroke:#A4D8C8;stroke-width:0.087;stroke-miterlimit:10;" d="M68.179,70.527h6.295
		c0,0-0.05-4.059-0.34-7.71c-0.01-0.121-0.044-0.531,0.032-0.626c0.202-0.252,0.774-2.674,2.106,1.463
		c0.102,0.318,0.515,0.442,0.847,0.49c0.487,0.071,1.074-0.104,0.997-1.398c-0.017-0.287-0.084-0.569-0.171-0.844
		c-0.449-1.405-1.318-6.713-5.858-6.713c0,0-0.056,1.343-1.226,3.09l0,0c-1.17-1.747-1.524-3.034-1.524-3.034
		c-4.568,0.093-5.217,5.296-5.663,6.674c-0.09,0.277-0.151,0.561-0.167,0.851c-0.068,1.27,0.513,1.443,0.998,1.373
		c0.333-0.048,0.776-0.165,0.849-0.491c0.609-2.729,1.267-2.506,1.692-2.009c0.241,0.282,0.437,0.828,0.455,1.198l0.022,0.456
		L68.179,70.527z"/>
	<path style="fill:#231F20;stroke:#231F20;stroke-width:0.0461;stroke-miterlimit:10;" d="M74.495,70.527v5.528
		c0,0.51-0.194,1.005-0.55,1.325c-0.312,0.28-0.733,0.422-1.206-0.06c-0.319-0.325-0.498-0.789-0.513-1.271l-0.168-5.521H74.495z"/>
	<path style="fill:#231F20;stroke:#231F20;stroke-width:0.0461;stroke-miterlimit:10;" d="M70.631,70.527l-0.168,5.521
		c-0.015,0.483-0.194,0.946-0.513,1.271c-0.473,0.482-0.895,0.34-1.206,0.06c-0.356-0.32-0.55-0.814-0.55-1.325v-5.528H70.631z"/>
	
		<ellipse style="fill:#F6D19F;stroke:#F6D19F;stroke-width:0.0885;stroke-miterlimit:10;" cx="70.588" cy="52.283" rx="2.743" ry="2.815"/>
	<path style="fill:#7E431C;" d="M73.196,51.411l0.032-1.273c-0.121-1.294-2.184-1.014-2.184-1.014
		c-0.958-0.755-1.74-0.42-2.174-0.087c-0.028,0.022-0.057,0.041-0.087,0.059c-0.559,0.332-0.927,0.991-0.93,1.749
		c-0.001,0.215,0.127,0.567,0.127,0.567l0.399-0.706c0,0,0.742,0.269,1.198-0.144c0,0,1.678,0.925,3.391,0.54L73.196,51.411z"/>
	<path style="fill:#6D6E70;stroke:#231F20;stroke-width:0.0433;stroke-miterlimit:10;" d="M71.065,62.062
		c0.392-0.656-0.413-1.615-0.413-1.615c-3.276-0.448-1.316-5.199-1.316-5.199s-1.561,5.085,1.557,4.791c0,0,2.38-0.255,1.244-4.816
		c0,0,1.618,4.066-0.965,5.108c0,0,0.504,2.233-0.299,2.249L71.065,62.062"/>
	<path style="fill:#231F20;stroke:#231F20;stroke-width:0.0433;stroke-miterlimit:10;" d="M71.7,62.137
		c0.079,0.322-0.101,0.647-0.402,0.724c-0.301,0.078-0.609-0.121-0.688-0.443s0.101-0.647,0.402-0.724
		C71.313,61.616,71.621,61.815,71.7,62.137z"/>
</g>
<g>
	<path style="fill:#FFFFFF;" d="M21.079,62.732c0,0,1.6-3.539,2.202-6.481c0.026-0.127-0.002-0.262-0.085-0.36
		c-0.174-0.206-0.61-0.29-1.673,1.017c-0.184,0.226-0.443,0.382-0.729,0.414c-0.373,0.042-0.797-0.112-0.786-1.038
		c0.003-0.291,0.055-0.578,0.142-0.854c0.369-1.169,1.509-4.886,4.652-5.661c0,0,0.291,1.091,1.252,2.574l0,0
		c0.961-1.482,1.007-2.622,1.007-2.622c3.143,0.775,4.448,4.541,4.817,5.71c0.087,0.276,0.138,0.564,0.142,0.854
		c0.011,0.927-0.413,1.081-0.786,1.038c-0.286-0.032-0.545-0.188-0.729-0.414c-1.062-1.307-1.499-1.222-1.673-1.017
		c-0.083,0.098-0.111,0.233-0.085,0.36c0.602,2.942,3.048,6.481,3.048,6.481h-2.773v4.173c0,0.385-0.16,0.758-0.452,1
		c-0.256,0.211-0.602,0.318-0.991-0.045c-0.262-0.246-0.409-0.595-0.422-0.96l-0.138-4.168h-1.165L25.717,66.9
		c-0.012,0.364-0.159,0.714-0.422,0.96c-0.389,0.364-0.735,0.257-0.991,0.045c-0.293-0.242-0.452-0.615-0.452-1v-4.173H21.079"/>
	<path style="fill:#231F20;stroke:#231F20;stroke-width:0.0433;stroke-miterlimit:10;" d="M28.983,62.732v4.173
		c0,0.385-0.16,0.758-0.452,1c-0.256,0.211-0.602,0.318-0.991-0.045c-0.262-0.246-0.409-0.595-0.422-0.96l-0.138-4.168"/>
	<path style="fill:#231F20;stroke:#231F20;stroke-width:0.0433;stroke-miterlimit:10;" d="M25.809,62.732L25.671,66.9
		c-0.012,0.364-0.159,0.714-0.422,0.96c-0.389,0.364-0.735,0.257-0.991,0.045c-0.293-0.242-0.452-0.615-0.452-1v-4.173"/>
	
		<ellipse style="fill:#F6D19F;stroke:#F6D19F;stroke-width:0.0866;stroke-miterlimit:10;" cx="25.831" cy="47.331" rx="2.253" ry="2.312"/>
	<path style="fill:#FFFFFF;" d="M28.084,45.923c-2.327-2.569-4.348-0.132-4.348-0.132l-0.976-1.989c0,0,2.825-1.411,5.993-0.05
		L28.084,45.923z"/>
	<polygon style="fill:#E12946;" points="25.648,43.801 25.245,43.801 25.248,44.198 25.651,44.2 25.648,44.583 26.104,44.583 
		26.104,44.192 26.496,44.192 26.504,43.801 26.104,43.801 26.107,43.388 25.648,43.388 	"/>
	<polygon style="fill:#E12946;" points="27.283,53.251 26.881,53.251 26.883,53.648 27.286,53.651 27.283,54.034 27.739,54.034 
		27.739,53.643 28.132,53.643 28.139,53.251 27.739,53.251 27.742,52.839 27.283,52.839 	"/>
	<ellipse style="fill:#E12946;" cx="26.107" cy="56.439" rx="0.244" ry="0.251"/>
	<ellipse style="fill:#E12946;" cx="26.107" cy="57.959" rx="0.244" ry="0.251"/>
	<ellipse style="fill:#E12946;" cx="26.107" cy="59.672" rx="0.244" ry="0.251"/>
	<path style="fill:#A4D8C8;stroke:#A4D8C8;stroke-width:0.087;stroke-miterlimit:10;" d="M37.198,62.381h5.285
		c0,0-0.042-3.407-0.286-6.473c-0.008-0.101-0.037-0.446,0.027-0.525c0.17-0.211,0.65-2.245,1.768,1.228
		c0.086,0.267,0.432,0.371,0.711,0.412c0.409,0.059,0.901-0.088,0.837-1.174c-0.014-0.241-0.07-0.478-0.144-0.708
		c-0.377-1.18-1.107-5.636-4.918-5.636c0,0-0.047,1.128-1.029,2.595l0,0c-0.982-1.467-1.28-2.547-1.28-2.547
		c-3.835,0.078-4.38,4.446-4.755,5.603c-0.075,0.232-0.127,0.471-0.14,0.715c-0.057,1.066,0.431,1.211,0.838,1.152
		c0.28-0.04,0.651-0.138,0.713-0.412c0.511-2.291,1.064-2.104,1.42-1.687c0.202,0.237,0.367,0.695,0.382,1.006l0.019,0.383
		L37.198,62.381z"/>
	<path style="fill:#231F20;stroke:#231F20;stroke-width:0.0461;stroke-miterlimit:10;" d="M42.501,62.381v4.641
		c0,0.429-0.163,0.843-0.462,1.112c-0.262,0.235-0.615,0.354-1.013-0.051c-0.268-0.273-0.418-0.662-0.431-1.067l-0.141-4.635H42.501
		z"/>
	<path style="fill:#231F20;stroke:#231F20;stroke-width:0.0461;stroke-miterlimit:10;" d="M39.257,62.381l-0.141,4.635
		c-0.012,0.405-0.163,0.794-0.431,1.067c-0.397,0.405-0.751,0.286-1.013,0.051c-0.299-0.269-0.462-0.684-0.462-1.112v-4.641H39.257z
		"/>
	
		<ellipse style="fill:#F6D19F;stroke:#F6D19F;stroke-width:0.0885;stroke-miterlimit:10;" cx="39.22" cy="47.064" rx="2.303" ry="2.363"/>
	<path style="fill:#7E431C;" d="M41.41,46.332l0.027-1.069c-0.102-1.086-1.834-0.852-1.834-0.852
		c-0.804-0.634-1.461-0.352-1.825-0.073c-0.024,0.018-0.048,0.035-0.073,0.05c-0.469,0.279-0.778,0.832-0.781,1.468
		c-0.001,0.18,0.107,0.476,0.107,0.476l0.335-0.593c0,0,0.623,0.226,1.006-0.121c0,0,1.408,0.776,2.847,0.454L41.41,46.332z"/>
	<path style="fill:#6D6E70;stroke:#231F20;stroke-width:0.0433;stroke-miterlimit:10;" d="M39.621,55.274
		c0.329-0.551-0.347-1.356-0.347-1.356c-2.75-0.376-1.105-4.365-1.105-4.365s-1.31,4.269,1.307,4.022c0,0,1.998-0.214,1.044-4.043
		c0,0,1.359,3.414-0.81,4.288c0,0,0.423,1.875-0.251,1.888L39.621,55.274"/>
	<path style="fill:#231F20;stroke:#231F20;stroke-width:0.0433;stroke-miterlimit:10;" d="M40.154,55.337
		c0.066,0.271-0.085,0.543-0.338,0.608c-0.253,0.065-0.511-0.102-0.578-0.372c-0.066-0.271,0.085-0.543,0.338-0.608
		S40.088,55.066,40.154,55.337z"/>
</g>
<g>
	<path style="fill:#FFFFFF;" d="M138.219,45.575c0,0,1.6-3.539,2.202-6.481c0.026-0.127-0.002-0.262-0.085-0.36
		c-0.174-0.206-0.61-0.29-1.673,1.017c-0.184,0.226-0.443,0.382-0.729,0.414c-0.373,0.042-0.797-0.112-0.786-1.038
		c0.003-0.291,0.055-0.578,0.142-0.854c0.369-1.169,1.509-4.886,4.652-5.661c0,0,0.291,1.091,1.252,2.574l0,0
		c0.961-1.482,1.007-2.622,1.007-2.622c3.143,0.775,4.448,4.541,4.817,5.71c0.087,0.276,0.138,0.564,0.142,0.854
		c0.011,0.927-0.413,1.081-0.786,1.038c-0.286-0.032-0.545-0.188-0.729-0.414c-1.062-1.307-1.499-1.222-1.673-1.017
		c-0.083,0.098-0.111,0.233-0.085,0.36c0.602,2.942,3.048,6.481,3.048,6.481h-2.773v4.173c0,0.385-0.16,0.758-0.452,1
		c-0.256,0.211-0.602,0.318-0.991-0.045c-0.262-0.246-0.409-0.595-0.422-0.96l-0.138-4.168h-1.165l-0.138,4.168
		c-0.012,0.364-0.159,0.714-0.422,0.96c-0.389,0.364-0.735,0.257-0.991,0.045c-0.293-0.242-0.452-0.615-0.452-1v-4.173H138.219"/>
	<path style="fill:#231F20;stroke:#231F20;stroke-width:0.0433;stroke-miterlimit:10;" d="M146.122,45.575v4.173
		c0,0.385-0.16,0.758-0.452,1c-0.256,0.211-0.602,0.318-0.991-0.045c-0.262-0.246-0.409-0.595-0.422-0.96l-0.138-4.168"/>
	<path style="fill:#231F20;stroke:#231F20;stroke-width:0.0433;stroke-miterlimit:10;" d="M142.949,45.575l-0.138,4.168
		c-0.012,0.364-0.159,0.714-0.422,0.96c-0.389,0.364-0.735,0.257-0.991,0.045c-0.293-0.242-0.452-0.615-0.452-1v-4.173"/>
	
		<ellipse style="fill:#F6D19F;stroke:#F6D19F;stroke-width:0.0866;stroke-miterlimit:10;" cx="142.971" cy="30.174" rx="2.253" ry="2.312"/>
	<path style="fill:#FFFFFF;" d="M145.224,28.766c-2.327-2.569-4.348-0.132-4.348-0.132l-0.976-1.989c0,0,2.825-1.411,5.993-0.05
		L145.224,28.766z"/>
	<polygon style="fill:#E12946;" points="142.788,26.644 142.385,26.644 142.387,27.041 142.791,27.043 142.788,27.426 
		143.243,27.426 143.243,27.035 143.636,27.035 143.643,26.644 143.243,26.644 143.246,26.231 142.788,26.231 	"/>
	<polygon style="fill:#E12946;" points="144.423,36.095 144.02,36.095 144.023,36.491 144.426,36.494 144.423,36.877 
		144.878,36.877 144.878,36.486 145.271,36.486 145.278,36.095 144.878,36.095 144.882,35.682 144.423,35.682 	"/>
	<ellipse style="fill:#E12946;" cx="143.247" cy="39.282" rx="0.244" ry="0.251"/>
	<ellipse style="fill:#E12946;" cx="143.247" cy="40.803" rx="0.244" ry="0.251"/>
	<ellipse style="fill:#E12946;" cx="143.247" cy="42.515" rx="0.244" ry="0.251"/>
	<path style="fill:#A4D8C8;stroke:#A4D8C8;stroke-width:0.087;stroke-miterlimit:10;" d="M154.338,45.224h5.285
		c0,0-0.042-3.407-0.286-6.473c-0.008-0.101-0.037-0.446,0.027-0.525c0.17-0.211,0.65-2.245,1.768,1.228
		c0.086,0.267,0.432,0.371,0.711,0.412c0.409,0.059,0.901-0.088,0.837-1.174c-0.014-0.241-0.07-0.478-0.144-0.708
		c-0.377-1.18-1.107-5.636-4.918-5.636c0,0-0.047,1.128-1.029,2.595l0,0c-0.982-1.467-1.28-2.547-1.28-2.547
		c-3.835,0.078-4.38,4.446-4.755,5.603c-0.075,0.232-0.127,0.471-0.14,0.715c-0.057,1.066,0.431,1.211,0.838,1.152
		c0.28-0.04,0.651-0.138,0.713-0.412c0.511-2.291,1.064-2.104,1.42-1.687c0.202,0.237,0.367,0.695,0.382,1.006l0.019,0.383
		L154.338,45.224z"/>
	<path style="fill:#231F20;stroke:#231F20;stroke-width:0.0461;stroke-miterlimit:10;" d="M159.64,45.224v4.641
		c0,0.429-0.163,0.843-0.462,1.112c-0.262,0.235-0.615,0.354-1.013-0.051c-0.268-0.273-0.418-0.662-0.431-1.067l-0.141-4.635H159.64
		z"/>
	<path style="fill:#231F20;stroke:#231F20;stroke-width:0.0461;stroke-miterlimit:10;" d="M156.397,45.224l-0.141,4.635
		c-0.012,0.405-0.163,0.794-0.431,1.067c-0.397,0.405-0.751,0.286-1.013,0.051c-0.299-0.269-0.462-0.684-0.462-1.112v-4.641H156.397
		z"/>
	
		<ellipse style="fill:#F6D19F;stroke:#F6D19F;stroke-width:0.0885;stroke-miterlimit:10;" cx="156.36" cy="29.907" rx="2.303" ry="2.363"/>
	<path style="fill:#7E431C;" d="M158.55,29.175l0.027-1.069c-0.102-1.086-1.834-0.852-1.834-0.852
		c-0.804-0.634-1.461-0.352-1.825-0.073c-0.024,0.018-0.048,0.035-0.073,0.05c-0.469,0.279-0.778,0.832-0.781,1.468
		c-0.001,0.18,0.107,0.476,0.107,0.476l0.335-0.593c0,0,0.623,0.226,1.006-0.121c0,0,1.408,0.776,2.847,0.454L158.55,29.175z"/>
	<path style="fill:#6D6E70;stroke:#231F20;stroke-width:0.0433;stroke-miterlimit:10;" d="M156.761,38.117
		c0.329-0.551-0.347-1.356-0.347-1.356c-2.75-0.376-1.105-4.365-1.105-4.365s-1.31,4.269,1.307,4.022c0,0,1.998-0.214,1.044-4.043
		c0,0,1.359,3.414-0.81,4.288c0,0,0.423,1.875-0.251,1.888L156.761,38.117"/>
	<path style="fill:#231F20;stroke:#231F20;stroke-width:0.0433;stroke-miterlimit:10;" d="M157.294,38.18
		c0.066,0.271-0.085,0.543-0.338,0.608s-0.511-0.102-0.578-0.372c-0.066-0.271,0.085-0.543,0.338-0.608
		C156.969,37.742,157.228,37.909,157.294,38.18z"/>
</g>
<g>
	<path style="fill:#FFFFFF;" d="M117.323,66.679c0,0,1.398-3.091,1.923-5.66c0.023-0.111-0.002-0.229-0.074-0.315
		c-0.152-0.18-0.533-0.254-1.461,0.888c-0.161,0.198-0.387,0.333-0.637,0.362c-0.325,0.037-0.696-0.097-0.686-0.907
		c0.003-0.254,0.048-0.505,0.124-0.746c0.322-1.021,1.318-4.267,4.063-4.944c0,0,0.254,0.953,1.094,2.248l0,0
		c0.839-1.295,0.88-2.29,0.88-2.29c2.745,0.677,3.885,3.966,4.207,4.987c0.076,0.241,0.121,0.493,0.124,0.746
		c0.01,0.809-0.361,0.944-0.686,0.907c-0.249-0.028-0.476-0.164-0.637-0.362c-0.928-1.142-1.309-1.068-1.461-0.888
		c-0.072,0.086-0.097,0.204-0.074,0.315c0.526,2.569,2.662,5.66,2.662,5.66h-2.422v3.645c0,0.337-0.139,0.662-0.395,0.873
		c-0.223,0.185-0.526,0.278-0.865-0.04c-0.229-0.215-0.358-0.52-0.368-0.838l-0.121-3.64h-1.018l-0.121,3.64
		c-0.011,0.318-0.139,0.624-0.368,0.838c-0.339,0.318-0.642,0.224-0.865,0.04c-0.256-0.211-0.395-0.537-0.395-0.873v-3.645H117.323"
		/>
	<path style="fill:#231F20;stroke:#231F20;stroke-width:0.0433;stroke-miterlimit:10;" d="M124.226,66.679v3.645
		c0,0.337-0.139,0.662-0.395,0.873c-0.224,0.185-0.526,0.278-0.865-0.04c-0.229-0.215-0.358-0.52-0.368-0.838l-0.121-3.64"/>
	<path style="fill:#231F20;stroke:#231F20;stroke-width:0.0433;stroke-miterlimit:10;" d="M121.454,66.679l-0.121,3.64
		c-0.011,0.318-0.139,0.624-0.368,0.838c-0.339,0.318-0.642,0.224-0.865,0.04c-0.256-0.211-0.395-0.537-0.395-0.873v-3.645"/>
	
		<ellipse style="fill:#F6D19F;stroke:#F6D19F;stroke-width:0.0866;stroke-miterlimit:10;" cx="121.473" cy="53.228" rx="1.968" ry="2.02"/>
	<path style="fill:#FFFFFF;" d="M123.441,51.998c-2.033-2.244-3.797-0.115-3.797-0.115l-0.853-1.737c0,0,2.467-1.232,5.234-0.044
		L123.441,51.998z"/>
	<polygon style="fill:#E12946;" points="121.314,50.145 120.962,50.145 120.964,50.492 121.316,50.494 121.314,50.828 
		121.711,50.828 121.711,50.487 122.055,50.487 122.061,50.145 121.711,50.145 121.714,49.785 121.314,49.785 	"/>
	<polygon style="fill:#E12946;" points="122.742,58.399 122.39,58.399 122.392,58.745 122.744,58.747 122.742,59.082 123.14,59.082 
		123.14,58.74 123.483,58.74 123.489,58.399 123.14,58.399 123.142,58.038 122.742,58.038 	"/>
	<ellipse style="fill:#E12946;" cx="121.715" cy="61.183" rx="0.213" ry="0.219"/>
	<ellipse style="fill:#E12946;" cx="121.715" cy="62.511" rx="0.213" ry="0.219"/>
	<ellipse style="fill:#E12946;" cx="121.715" cy="64.006" rx="0.213" ry="0.219"/>
	<path style="fill:#A4D8C8;stroke:#A4D8C8;stroke-width:0.087;stroke-miterlimit:10;" d="M131.401,66.372h4.615
		c0,0-0.036-2.976-0.25-5.653c-0.007-0.089-0.032-0.389,0.024-0.459c0.148-0.185,0.567-1.961,1.544,1.073
		c0.075,0.233,0.377,0.324,0.621,0.36c0.357,0.052,0.787-0.076,0.731-1.025c-0.013-0.211-0.061-0.418-0.126-0.619
		c-0.329-1.03-0.967-4.922-4.295-4.922c0,0-0.041,0.985-0.899,2.266l0,0c-0.858-1.281-1.118-2.224-1.118-2.224
		c-3.349,0.068-3.825,3.883-4.153,4.894c-0.066,0.203-0.111,0.411-0.122,0.624c-0.05,0.931,0.376,1.058,0.731,1.007
		c0.244-0.035,0.569-0.121,0.622-0.36c0.446-2.001,0.929-1.837,1.241-1.473c0.177,0.207,0.321,0.607,0.334,0.878l0.016,0.334
		L131.401,66.372z"/>
	<path style="fill:#231F20;stroke:#231F20;stroke-width:0.0461;stroke-miterlimit:10;" d="M136.032,66.372v4.053
		c0,0.374-0.142,0.737-0.404,0.971c-0.228,0.205-0.538,0.309-0.884-0.044c-0.234-0.239-0.365-0.578-0.376-0.932l-0.123-4.048
		H136.032z"/>
	<path style="fill:#231F20;stroke:#231F20;stroke-width:0.0461;stroke-miterlimit:10;" d="M133.199,66.372l-0.123,4.048
		c-0.011,0.354-0.142,0.694-0.376,0.932c-0.347,0.353-0.656,0.249-0.884,0.044c-0.261-0.235-0.404-0.597-0.404-0.971v-4.053H133.199
		z"/>
	
		<ellipse style="fill:#F6D19F;stroke:#F6D19F;stroke-width:0.0885;stroke-miterlimit:10;" cx="133.167" cy="52.995" rx="2.011" ry="2.064"/>
	<path style="fill:#7E431C;" d="M135.08,52.355l0.023-0.933c-0.089-0.949-1.601-0.744-1.601-0.744
		c-0.703-0.554-1.276-0.308-1.594-0.064c-0.021,0.016-0.042,0.03-0.064,0.043c-0.41,0.243-0.68,0.727-0.682,1.282
		c-0.001,0.157,0.093,0.416,0.093,0.416l0.293-0.518c0,0,0.544,0.197,0.879-0.105c0,0,1.23,0.678,2.486,0.396L135.08,52.355z"/>
	<path style="fill:#6D6E70;stroke:#231F20;stroke-width:0.0433;stroke-miterlimit:10;" d="M133.517,60.165
		c0.288-0.481-0.303-1.184-0.303-1.184c-2.402-0.329-0.965-3.812-0.965-3.812s-1.144,3.728,1.141,3.513c0,0,1.745-0.187,0.912-3.531
		c0,0,1.187,2.981-0.707,3.745c0,0,0.369,1.638-0.219,1.649L133.517,60.165"/>
	<path style="fill:#231F20;stroke:#231F20;stroke-width:0.0433;stroke-miterlimit:10;" d="M133.983,60.22
		c0.058,0.236-0.074,0.474-0.295,0.531c-0.221,0.057-0.447-0.089-0.504-0.325c-0.058-0.236,0.074-0.474,0.295-0.531
		C133.699,59.838,133.925,59.984,133.983,60.22z"/>
</g>
</svg>
