<?xml version="1.0" encoding="iso-8859-1"?>
<!-- Generator: Adobe Illustrator 18.1.1, SVG Export Plug-In . SVG Version: 6.00 Build 0)  -->
<svg version="1.1" id="Layer_1" xmlns="http://www.w3.org/2000/svg" xmlns:xlink="http://www.w3.org/1999/xlink" x="0px" y="0px"
	 viewBox="0 0 39.932 86.697" style="enable-background:new 0 0 39.932 86.697;" xml:space="preserve">
<line style="fill:none;stroke:#231F20;stroke-linecap:round;stroke-miterlimit:10;" x1="5.392" y1="79.515" x2="3.359" y2="86.197"/>
<path style="fill:#D0D2D3;" d="M31.078,26.868c11.462,3.784-0.985,4.106-0.985,4.106L13.627,76.358l-3.495,3.694l-4.74-0.536l0,0
	L1.64,77.269L0,71.855l14.09-46.392c0,0-11.578-7.45,2.008-3.329C28.997,26.047,31.078,26.868,31.078,26.868"/>
<path style="fill:#E12946;stroke:#E12946;stroke-width:0.226;stroke-miterlimit:10;" d="M14.211,55.878c0,0,1.924-0.118,2.32,1.759
	c0.112,0.531-0.338,1.178-0.45,2.086c-0.444,3.582-5.316,12.88-7.253,14.643c-1.574,1.433-1.841-0.129-2.16-2.189
	c-0.279-1.803,0.099-7.535,1.13-11.362c0.308-1.145,0.767-4.868,1.997-5.825C10.879,54.147,13.079,56.214,14.211,55.878z"/>
<line style="fill:none;stroke:#231F20;stroke-linecap:round;stroke-miterlimit:10;" x1="11.833" y1="68.045" x2="8.142" y2="66.665"/>
<line style="fill:none;stroke:#231F20;stroke-linecap:round;stroke-miterlimit:10;" x1="11.816" y1="64.481" x2="10.276" y2="63.787"/>
<line style="fill:none;stroke:#231F20;stroke-linecap:round;stroke-miterlimit:10;" x1="13.579" y1="58.887" x2="12.039" y2="58.194"/>
<line style="fill:none;stroke:#231F20;stroke-linecap:round;stroke-miterlimit:10;" x1="15.269" y1="54.329" x2="13.729" y2="53.636"/>
<line style="fill:none;stroke:#231F20;stroke-linecap:round;stroke-miterlimit:10;" x1="14.028" y1="61.765" x2="9.777" y2="59.992"/>
<line style="fill:none;stroke:#231F20;stroke-linecap:round;stroke-miterlimit:10;" x1="15.614" y1="57.271" x2="11.362" y2="55.498"/>
<line style="fill:none;stroke:#231F20;stroke-linecap:round;stroke-miterlimit:10;" x1="17.373" y1="52.347" x2="13.122" y2="50.574"/>
<polygon style="fill:#D0D2D3;" points="29.011,24.92 33.872,6.319 26.411,3.511 18.735,21.771 "/>
<ellipse transform="matrix(0.9523 0.3052 -0.3052 0.9523 2.511 -9.0419)" style="fill:#D0D2D3;" cx="30.179" cy="3.511" rx="10.227" ry="1.688"/>
</svg>
